<?xml version="1.0" encoding="UTF-8" standalone="no"?>
<!-- Created with Inkscape (http://www.inkscape.org/) -->

<svg
   xmlns:dc="http://purl.org/dc/elements/1.1/"
   xmlns:cc="http://creativecommons.org/ns#"
   xmlns:rdf="http://www.w3.org/1999/02/22-rdf-syntax-ns#"
   xmlns:svg="http://www.w3.org/2000/svg"
   xmlns="http://www.w3.org/2000/svg"
   xmlns:sodipodi="http://sodipodi.sourceforge.net/DTD/sodipodi-0.dtd"
   xmlns:inkscape="http://www.inkscape.org/namespaces/inkscape"
   version="1.1"
   id="svg2112"
   width="1052"
   height="1216"
   viewBox="0 0 1052 1216"
   sodipodi:docname="logo-2.svg"
   inkscape:version="0.92.2 5c3e80d, 2017-08-06">
  <metadata
     id="metadata2118">
    <rdf:RDF>
      <cc:Work
         rdf:about="">
        <dc:format>image/svg+xml</dc:format>
        <dc:type
           rdf:resource="http://purl.org/dc/dcmitype/StillImage" />
        <dc:title></dc:title>
      </cc:Work>
    </rdf:RDF>
  </metadata>
  <defs
     id="defs2116" />
  <sodipodi:namedview
     pagecolor="#ffffff"
     bordercolor="#666666"
     borderopacity="1"
     objecttolerance="10"
     gridtolerance="10"
     guidetolerance="10"
     inkscape:pageopacity="0"
     inkscape:pageshadow="2"
     inkscape:window-width="1920"
     inkscape:window-height="1016"
     id="namedview2114"
     showgrid="false"
     inkscape:zoom="0.54893816"
     inkscape:cx="501.49017"
     inkscape:cy="572.69046"
     inkscape:window-x="0"
     inkscape:window-y="27"
     inkscape:window-maximized="1"
     inkscape:current-layer="svg2112" />
  <path
     style="fill:#000000;stroke-width:1.33333337"
     d="m 82.1591,1214.6415 c -2.1125,-0.6325 -5.2625,-2.4855 -7,-4.1178 -3.0182,-2.8355 -3.1591,-3.7641 -3.1591,-20.823 0,-10.2424 0.6144,-19.0032 1.4409,-20.5476 5.0157,-9.372 31.1698,-10.3656 39.3894,-1.4965 3.0095,3.2473 3.1697,4.3231 3.1697,21.2861 0,17.0227 -0.1493,18.0152 -3.163,21.0289 -5.4183,5.4183 -20.5072,7.7151 -30.6779,4.6699 z m 20.9286,-6.8204 c 4.5663,-2.4035 4.8702,-3.5754 4.8919,-18.861 0.019,-13.5182 -0.1787,-14.593 -3.2523,-17.6666 -2.753,-2.753 -4.553,-3.2728 -11.3334,-3.2728 -12.4452,0 -13.3939,1.5058 -13.3939,21.2578 0,14.9443 0.1824,16.0521 2.9633,18 3.5118,2.4597 15.8501,2.7924 20.1244,0.5426 z M 273,1215.2583 c -0.55,-0.5585 -1,-2.1938 -1,-3.6342 0,-2.2582 0.6556,-2.5126 4.7604,-1.8464 2.6182,0.4248 6.2182,0.2182 8,-0.4593 L 288,1208.0867 v -22.6996 -22.6997 h 4.7986 4.7986 l -0.4653,23.2975 c -0.4393,21.9978 -0.631,23.4631 -3.4373,26.2683 -2.28,2.2792 -4.919,3.0931 -11.3333,3.4957 -4.5987,0.2885 -8.8113,0.068 -9.3613,-0.4906 z m 53.99999,-0.1785 c -2.2574,-0.4348 -3,-1.5 -3,-4.3031 v -3.7253 l 7,1.2798 c 8.47036,1.5486 18.24171,0.6451 19.81116,-1.8319 1.47272,-2.3244 1.48687,-10.6107 0.022,-12.9214 -0.66388,-1.0472 -4.62244,-2.038 -9.64624,-2.4142 -4.68617,-0.351 -9.85941,-0.9104 -11.49606,-1.2432 -6.18304,-1.2572 -9.10614,-14.0063 -5.02212,-21.9039 2.41165,-4.6636 8.43057,-6.6444 20.22214,-6.6551 10.20031,-0.01 12.44239,0.813 12.44239,4.5629 0,2.8557 -0.35888,2.9328 -11.04392,2.372 -13.03453,-0.6842 -14.67715,0.4032 -14.03756,9.2925 l 0.41488,5.7652 6.66667,0.3351 c 17.37157,0.8734 20.66666,3.1689 20.66666,14.3977 0,9.884 -2.66062,14.7698 -9.00213,16.531 -4.88921,1.3578 -18.03292,1.6108 -23.99787,0.4619 z m 539.15909,-0.4383 c -2.1125,-0.6325 -5.2625,-2.4855 -7,-4.1178 -3.0182,-2.8355 -3.1591,-3.7641 -3.1591,-20.823 0,-10.2424 0.6144,-19.0032 1.4409,-20.5476 5.0157,-9.372 31.1698,-10.3656 39.3894,-1.4965 3.0095,3.2473 3.1697,4.3231 3.1697,21.2861 0,17.0227 -0.1493,18.0152 -3.163,21.0289 -5.4182,5.4183 -20.5072,7.7151 -30.6779,4.6699 z m 20.9286,-6.8204 c 4.5663,-2.4035 4.8702,-3.5754 4.8919,-18.861 0.019,-13.5182 -0.1787,-14.593 -3.2523,-17.6666 -2.7529,-2.753 -4.5529,-3.2728 -11.3333,-3.2728 -12.4452,0 -13.394,1.5058 -13.394,21.2578 0,14.9443 0.1824,16.0521 2.9634,18 3.5117,2.4597 15.85,2.7924 20.1243,0.5426 z M 0,1188.6874 v -26 l 5,0.028 c 4.963,0.028 5.0986,0.1776 18.3333,20.218 l 13.3334,20.1898 0.368,-20.2181 0.3681,-20.218 h 3.9653 3.9652 v 26 26 h -5.379 -5.3791 l -13.2692,-20.3333 -13.2693,-20.3334 -0.018,20.3334 -0.018,20.3333 h -4 -4 z m 144,0 v -26 h 14.7095 c 25.5634,0 27.9572,2.2871 27.9572,26.7119 0,15.1986 -0.2642,17.0688 -2.7947,19.785 -4.3234,4.6406 -8.1829,5.5031 -24.6255,5.5031 H 144 Z m 26.9843,19.2676 c 2.7414,-0.7614 5.5914,-2.5186 6.3333,-3.9049 2.0305,-3.7941 1.7188,-28.3474 -0.3966,-31.2404 -1.8922,-2.5877 -10.2388,-4.6385 -19.2543,-4.7309 L 152,1168.0208 v 20.6666 20.6667 l 7,-0.01 c 3.85,0 9.2429,-0.6304 11.9843,-1.3917 z m 43.6824,-19.2676 v -26 h 18.0927 c 18.0002,0 18.0906,0.015 17.6667,3 -0.4061,2.8591 -1.0682,3.0179 -14.0928,3.38 l -13.6666,0.38 v 7.2366 7.2367 L 235,1184.304 c 11.6402,0.3619 12.3573,0.552 12.7594,3.3834 0.4164,2.9318 0.136,3 -12.3333,3 h -12.7594 v 9.3333 9.3334 h 14 c 13.1111,0 14,0.1693 14,2.6666 0,2.535 -0.8889,2.6667 -18,2.6667 h -18 z m 206.66663,0 v -26 h 18 18 v 3.3333 3.3334 h -14 -14 v 7.3333 7.3333 h 12.66666 c 12.62223,0 12.66667,0.012 12.66667,3.3334 0,3.3216 -0.0444,3.3333 -12.66667,3.3333 h -12.66666 v 12 12 h -4 -4 z m 61.33334,-0.1117 v -26.1117 l 16.12071,0.445 c 15.06485,0.4159 16.28745,0.6512 18.66666,3.5927 2.9021,3.588 3.47755,14.0155 1.0656,19.3092 -1.48024,3.2488 -6.2284,6.2098 -9.95777,6.2098 -1.35285,0 -0.36248,2.2155 3.12912,7 2.80964,3.85 6.46943,8.95 8.13285,11.3333 l 3.02442,4.3333 h -5.41679 c -5.29523,0 -5.57404,-0.2387 -12.42413,-10.6366 -5.91636,-8.9806 -7.5782,-10.6413 -10.674,-10.6667 l -3.66667,-0.03 v 10.6667 10.6667 h -4 -4 z m 26.4,-3.4883 c 0.88,-0.88 1.6,-4.4949 1.6,-8.033 0,-5.6786 -0.40111,-6.5855 -3.42013,-7.7333 -1.88107,-0.7152 -6.38107,-1.3004 -10,-1.3004 h -6.57987 v 9.3334 9.3333 h 8.4 c 4.75556,0 9.09417,-0.6942 10,-1.6 z m 33.6,28.6493 c 0,-0.6159 4.43807,-12.2039 9.86237,-25.7512 l 9.86234,-24.6314 5.1377,-0.3866 5.1376,-0.3866 9.6964,25.0532 c 5.3331,13.7793 9.6831,25.5413 9.6667,26.1378 -0.016,0.5964 -1.9762,0.8964 -4.3551,0.6666 -3.8925,-0.376 -4.5764,-1.1182 -6.8337,-7.4178 l -2.5083,-7 h -11.0732 -11.0731 l -2.6022,7 c -2.29898,6.1847 -3.08638,7.0487 -6.75979,7.4178 -2.28675,0.2298 -4.15772,-0.086 -4.15772,-0.7018 z m 28.83931,-31.6106 c -2.2886,-6.1755 -4.2792,-11.11 -4.4235,-10.9656 -0.1444,0.1444 -2.0819,5.197 -4.3056,11.228 l -4.0431,10.9656 h 8.4667 8.4666 z m 44.494,6.4882 v -26.073 l 6.167,0.4064 6.167,0.4064 8.058,20.6583 c 4.4319,11.362 8.2649,20.062 8.5178,19.3333 0.2529,-0.7287 3.65,-10.025 7.5492,-20.6583 l 7.0895,-19.3333 6.22579,-0.4064 6.2257,-0.4064 v 26.073 26.0731 h -3.9652 -3.9653 l -0.3681,-19.9986 -0.368,-19.9986 -7.48059,19.6653 -7.4806,19.6652 h -4.3313 -4.3312 l -7.5215,-19.3333 -7.5215,-19.3333 -0.369,19.6666 -0.369,19.6667 h -3.9643 -3.9644 z m 85.33339,0.073 v -26 h 18.0927 c 18.0002,0 18.0906,0.015 17.6667,3 -0.4061,2.8591 -1.0682,3.0179 -14.0928,3.38 l -13.6666,0.38 v 7.2366 7.2367 l 12.3333,0.3833 c 11.6402,0.3619 12.3573,0.552 12.7594,3.3834 0.4164,2.9318 0.136,3 -12.3333,3 h -12.7594 v 9.3333 9.3334 h 14 c 13.1111,0 14,0.1693 14,2.6666 0,2.535 -0.8889,2.6667 -18,2.6667 h -18 z m 70.1109,19 c -1.1431,-3.85 -4.7248,-15.4 -7.9594,-25.6667 l -5.8811,-18.6666 4.0583,-0.4323 c 2.2321,-0.2377 4.5114,0.3009 5.0651,1.1969 0.5538,0.8959 3.5713,10.6087 6.7057,21.5838 l 5.6988,19.9548 6.165,-21.1516 6.16491,-21.1516 4.7456,-0.4025 4.7456,-0.4025 5.8569,20.7338 c 3.2214,11.4035 6.157,20.7337 6.5237,20.7337 0.3666,0 3.2935,-9.2991 6.504,-20.6646 l 5.8374,-20.6645 h 4.6386 c 3.7824,0 4.4811,0.4104 3.7855,2.2232 -0.4692,1.2227 -4.2699,12.9506 -8.446,26.0618 l -7.5929,23.8387 -5.2568,-0.3952 -5.2567,-0.3952 -5.3475,-19 c -2.9411,-10.45 -5.7466,-19 -6.2344,-19 -0.4878,0 -2.2229,4.65 -3.8558,10.3334 -1.6329,5.6833 -4.18381,14.3833 -5.66871,19.3333 l -2.6998,9 h -5.1089 c -5.0102,0 -5.1489,-0.1351 -7.1871,-7 z m 156.55571,-19.1117 v -26.1116 l 16.1207,0.445 c 15.0649,0.4158 16.2875,0.6511 18.6667,3.5927 2.9021,3.588 3.4775,14.0155 1.0656,19.3092 -1.4802,3.2487 -6.2284,6.2097 -9.9578,6.2097 -1.3528,0 -0.3625,2.2156 3.1291,7 2.8097,3.85 6.4695,8.95 8.1329,11.3334 l 3.0244,4.3333 h -5.4168 c -5.2952,0 -5.574,-0.2387 -12.4241,-10.6366 -5.9164,-8.9807 -7.5782,-10.6413 -10.674,-10.6667 l -3.6667,-0.03 v 10.6667 10.6667 h -4 -4 z m 26.4,-3.4883 c 0.88,-0.88 1.6,-4.4949 1.6,-8.033 0,-5.6786 -0.4011,-6.5855 -3.4201,-7.7333 -1.8811,-0.7152 -6.3811,-1.3004 -10,-1.3004 h -6.5799 v 9.3334 9.3333 h 8.4 c 4.7556,0 9.0942,-0.6942 10,-1.6 z m 38.9334,3.6 v -26 h 4 4.00002 l 0.051,11.6667 0.051,11.6666 11.2258,-11.6666 c 9.967,-10.3586 11.7554,-11.6667 15.9491,-11.6667 2.5978,0 4.7233,0.4375 4.7233,0.9721 0,0.5347 -4.8928,5.8906 -10.8729,11.9019 l -10.873,10.9298 5.3912,6.4314 c 2.9652,3.5373 6.7241,7.6315 8.3532,9.0981 1.6291,1.4667 4.7463,4.9167 6.9271,7.6667 l 3.9652,5 h -5.3179 c -5.0389,0 -5.9541,-0.6997 -17.4454,-13.3367 l -12.1275,-13.3367 v 13.3368 13.3367 h -4.00002 -4 z m -376.929,-111.9812 c -13.1795,-2.3907 -20.3234,-6.5361 -24.071,-13.968 -2.6445,-5.2441 -3,-7.9694 -3,-22.9961 v -17.047 l 4.7812,-5.2923 c 2.6298,-2.9108 6.8298,-6.0331 9.3334,-6.9384 5.3059,-1.9187 5.7575,-3.1854 1.5151,-4.2501 -1.6703,-0.4193 -4.8203,-2.622 -7,-4.895 -3.8482,-4.01305 -3.9748,-4.56525 -4.3666,-19.04905 -0.3627,-13.4058 -0.093,-15.5227 2.6667,-20.9055 6.1825,-12.0607 15.326,-15.2933 43.0702,-15.2269 17.5064,0.042 20.9489,0.421 27.61129,3.0404 13.3254,5.2393 17.0353,12.4159 17.0479,32.9786 0.01,10.3826 -0.4279,12.7908 -3.0052,16.6667 -1.6569,2.49175 -4.944,5.43055 -7.3045,6.53055 -5.1271,2.3892 -5.4122,3.4442 -1.2154,4.4975 1.7238,0.4326 5.7738,3.1276 9,5.9889 l 5.8659,5.2022 0.4398,17.5148 c 0.3964,15.7888 0.1539,18.1054 -2.4614,23.5078 -1.9997,4.1308 -4.7142,7.0556 -8.7355,9.4122 -11.2018,6.5647 -39.33109,9.009 -60.17189,5.2287 z m 37.8828,-21.0664 c 1.983,-1.9843 2.3795,-4.7254 2.3795,-16.4512 0,-18.2721 -0.851,-19.1679 -18.2083,-19.1679 -10.8705,0 -12.1993,0.2864 -15.1856,3.2728 -2.9602,2.9602 -3.2728,4.3525 -3.2728,14.5798 0,19.1656 1.7774,20.9582 20.2872,20.4601 9.0895,-0.2446 12.1388,-0.8313 14,-2.6936 z m -2.8085,-58.92575 c 2.5793,-3.5274 2.551,-24.5647 -0.038,-28.1052 -1.6057,-2.196 -3.5413,-2.5882 -12.7741,-2.5882 -13.9132,0 -14.6667,0.8563 -14.6667,16.6667 0,16.0332 1.4161,17.48655 16.4787,16.9119 7.188,-0.2742 9.5423,-0.8917 11,-2.8852 z m 80.52129,80.20775 c -12.8689,-3.0009 -19.1411,-7.6758 -23.5946,-17.5859 -2.0754,-4.6182 -2.4455,-10.2552 -2.8232,-42.9899 -0.4643,-40.25415 0.3817,-48.90955 5.527,-56.54465 7.1427,-10.5991 16.5586,-13.7151 41.5575,-13.7526 27.8199,-0.042 38.03501,4.0555 44.50441,17.8512 l 3.4956,7.4541 v 40.66675 40.6667 l -3.749,7.6345 c -4.1887,8.53 -7.82051,11.6366 -17.58431,15.0415 -8.7117,3.0381 -36.9947,3.9692 -47.3334,1.5584 z m 36.2682,-20.6344 c 2.5235,-2.5257 2.5221,-86.00985 0,-88.53335 -1.1918,-1.1918 -5.9116,-1.7334 -15.1075,-1.7334 -11.7001,0 -13.611,0.324 -15.2667,2.5882 -1.534,2.0979 -1.8925,10.1002 -1.8925,42.24655 0,21.8121 0.566,41.1469 1.2576,42.9662 0.6917,1.8193 2.3417,3.6162 3.6667,3.9932 4.8792,1.3881 25.5866,0.2315 27.3439,-1.5274 z M 238.6667,1012.0206 v -64.00005 h 15.9745 15.9745 l 0.3588,29.344 0.3588,29.34405 23.2357,-29.34405 23.23574,-29.344 h 18.50965 c 14.46087,0 18.28734,0.3646 17.49332,1.6667 -0.88944,1.4586 -27.81096,34.6806 -41.91321,51.72235 l -5.0111,6.0556 26.55829,33.7936 c 14.60706,18.5865 26.5583,34.0114 26.5583,34.2777 0,0.2663 -8.57374,0.4841 -19.05278,0.4841 h -19.05279 l -25.28052,-33.0892 -25.2806,-33.0892 -0.3562,33.0892 -0.3562,33.0892 h -15.9771 -15.9771 z m 134.66663,0 v -64.00005 h 16 16 v 64.00005 64 h -16 -16 z m 88,11.3334 v -52.66665 h -19.33334 -19.33333 v -11.3333 -11.3334 h 55.38726 55.38726 l -0.38726,11 -0.38725,11 -19.66667,0.369 -19.66666,0.369 v 52.63105 52.631 h -16 -16.00001 z M 508,817.33055 c -9.0143,-1.5669 -20.53221,-6.2785 -28.35218,-11.5979 -5.11395,-3.4786 -10.36903,-5.5092 -19.64783,-7.5921 l -12.66666,-2.8433 -0.82618,-25.30498 c -1.62776,-49.857 -1.37482,-75.3116 0.75646,-76.1295 1.06166,-0.4074 8.36765,-1.768 16.23557,-3.0236 l 14.30526,-2.2829 8.36678,-23.2679 8.36678,-23.2678 0.0643,-96.3332 c 0.0353,-52.9834 -0.24759,-96.3334 -0.62883,-96.3334 -0.38124,0 -2.9683,1.4363 -5.74905,3.1917 -6.74205,4.2561 -16.66183,15.4489 -20.23695,22.8341 l -2.89198,5.9742 h -28.54775 -28.54772 v -80.6666 -80.6667 h 9.33334 9.33333 v -5.3333 -5.3334 h -9.33333 -9.33334 v -5.3333 -5.3333 h 9.33334 c 8.44444,0 9.33333,-0.254 9.33333,-2.6667 0,-2.4127 -0.88889,-2.6667 -9.33333,-2.6667 h -9.33334 v -5.3333 -5.3333 h 9.33334 c 8.44444,0 9.33333,-0.254 9.33333,-2.6667 0,-2.4127 -0.88889,-2.6667 -9.33333,-2.6667 h -9.33334 v -4.6666 -4.6667 h 9.33334 9.33333 v -4.6667 -4.6666 h -9.33333 -9.33334 v -30 -30 h 110.00001 109.99998 v 30 30 h -9.3333 -9.3333 v 4.6666 4.6667 h 9.3333 9.3333 v 4.6667 4.6666 h -9.3333 c -8.4444,0 -9.3333,0.254 -9.3333,2.6667 0,2.4127 0.8889,2.6667 9.3333,2.6667 h 9.3333 v 5.3333 5.3333 h -9.3333 c -8.4444,0 -9.3333,0.254 -9.3333,2.6667 0,2.4127 0.8889,2.6667 9.3333,2.6667 h 9.3333 v 5.3333 5.3333 h -9.3333 -9.3333 v 5.3334 5.3333 h 9.3333 9.3333 v 80.6667 80.6666 h -28.6442 -28.6442 l -3.4392,-6.7869 c -4.0641,-8.0201 -12.6236,-17.6673 -19.57922,-22.0671 -2.73542,-1.7303 -5.28542,-3.146 -5.66666,-3.146 -0.38124,0 -0.66422,43.35 -0.62883,96.3334 l 0.0643,96.3333 8.38152,23.3333 8.38149,23.3334 4.5541,0.3358 c 4.186,0.3086 15.2612,2.0556 24.2209,3.8204 l 3.6666,0.7223 v 50.5607 c 10e-5,27.8084 -0.3063,50.56078 -0.6807,50.56078 -0.3744,0 -6.2089,1.2313 -12.9655,2.7363 -7.8266,1.7434 -13.8726,3.9475 -16.6601,6.0736 -6.7926,5.181 -20.33565,11.0428 -30.47699,13.1912 -10.05154,2.1294 -12.85444,2.2117 -21.88326,0.6422 z m -10.77269,-21.7671 c -12.79872,-5.2652 -21.80631,-14.0427 -27.23997,-26.54408 -1.4131,-3.2511 -1.89598,-3.6489 -1.93515,-1.5939 -0.084,4.4065 6.13216,15.58288 11.68,21.00018 5.30563,5.1808 15.78616,10.114 21.60115,10.1675 2.32441,0.021 1.08162,-0.8956 -4.10603,-3.0297 z m 39.39659,-8.0185 c 14.99288,-6.864 25.44058,-21.33478 26.93168,-37.30218 1.7933,-19.2042 -8.0713,-36.3809 -25.94778,-45.1815 -7.83754,-3.8584 -10.14592,-4.3696 -19.57976,-4.3365 -8.66769,0.03 -12.11494,0.6964 -18.18805,3.5136 -28.07473,13.0232 -35.98315,47.4341 -16.39524,71.3386 12.43552,15.17588 35.05368,20.26608 53.17915,11.96798 z M 509.33334,544.64037 c 0,-82.967 -0.0133,-83.3731 -2.66667,-81.953 -2.62227,1.4034 -2.66667,2.7917 -2.66667,83.3802 0,81.0642 0.0289,81.9531 2.66667,81.9531 2.63824,0 2.66667,-0.8889 2.66667,-83.3803 z m 26.38633,-123.811 c 28.32151,-14.3516 28.36251,-55.8987 0.0692,-70.0371 -6.88527,-3.4406 -9.76432,-4.1049 -17.78887,-4.1049 -15.9206,0 -28.06096,7.6145 -36.13912,22.6666 -3.9508,7.3616 -3.54978,25.3323 0.75326,33.7557 3.60569,7.0584 12.68074,16.1599 18.39609,18.4497 11.70293,4.6888 24.54915,4.4186 34.70944,-0.73 z M 468,330.68737 v -9.3334 h -13.33334 -13.33333 v 9.3334 9.3333 H 454.66666 468 Z m -1.33333,-26.6667 v -4 h -13.33334 -13.33334 v 4 4 h 13.33334 13.33334 z m 0,-16 v -4 h -13.33334 -13.33334 v 4 4 h 13.33334 13.33334 z m 0,-16 v -4 h -13.33334 -13.33334 v 4 4 h 13.33334 13.33334 z m 0,-38 v -24.6667 h -13.33334 -13.33334 v 24.6667 24.6667 h 13.33334 13.33334 z m -90.66668,477.2562 c -5.5,-2.4786 -10.49398,-4.6899 -11.09776,-4.914 -0.60377,-0.224 -0.15633,-10.5927 0.99431,-23.0415 1.66252,-17.9868 1.75103,-22.8514 0.43109,-23.6924 -7.1085,-4.5295 -24.281,-14.275 -25.15385,-14.275 -0.59584,0 -9.28451,5.9793 -19.30816,13.2872 l -18.22482,13.2872 -5.4871,-3.9924 c -3.0178,-2.1958 -7.4906,-5.6533 -9.9394,-7.6833 l -4.4523,-3.6909 8.3383,-21.7084 8.3382,-21.7084 -11.2192,-11.0915 -11.2193,-11.0915 -20,7.785 c -11,4.2817 -20.9932,7.82 -22.2071,7.8627 -2.9738,0.1046 -16.3333,-17.965 -14.9499,-20.2207 0.5739,-0.9359 6.6292,-9.381 13.456,-18.7668 l 12.4124,-17.0651 -7.617,-12.9349 c -4.1894,-7.1142 -7.7878,-13.1732 -7.9964,-13.4644 -0.2087,-0.2913 -10.6501,0.4996 -23.2033,1.7576 -12.5531,1.258 -22.9885,2.0963 -23.1897,1.8629 -1.7929,-2.0793 -10.4146,-22.6753 -9.6734,-23.1082 1.0735,-0.6269 35.6351,-29.0501 35.6351,-29.306 0,-0.9821 -7.9397,-30.3762 -8.27,-30.6169 -0.2182,-0.159 -10.5967,-1.751 -23.0634,-3.5377 l -22.6666,-3.2487 -1.5228,-8.6367 c -3.0671,-17.3959 -4.5436,-15.3715 18.9422,-25.9701 l 20.6823,-9.3333 0.2491,-15.9302 0.2491,-15.9302 -20.9314,-9.4031 c -23.7695,-10.6782 -22.2643,-8.638 -19.1913,-26.0128 l 1.5228,-8.6096 22.3101,-3.4783 c 12.2706,-1.9131 22.6086,-3.7767 22.9733,-4.1414 0.3647,-0.3647 2.1352,-6.3251 3.9345,-13.2454 1.7994,-6.9203 3.6492,-13.5635 4.1108,-14.7628 0.6271,-1.6293 -3.648,-5.8202 -16.9114,-16.5784 -9.7629,-7.9188 -17.9125,-14.4994 -18.1102,-14.6235 -0.1978,-0.1241 1.8122,-5.4139 4.4666,-11.755 3.9482,-9.4316 5.3479,-11.5263 7.693,-11.5127 1.5766,0.01 12.1527,1.1731 23.5023,2.5865 11.3496,1.4135 20.6893,2.456 20.7547,2.3167 0.065,-0.1392 3.5384,-6.1937 7.7176,-13.4543 l 7.5985,-13.2011 -13.3532,-18.4964 C 226.009,177.61567 220,168.99327 220,168.62787 c 0,-0.3655 3.1178,-4.7016 6.9285,-9.6358 3.8106,-4.9343 7.0684,-9.1792 7.2394,-9.4331 0.1711,-0.2539 10.2349,3.267 22.3642,7.8242 l 22.0531,8.2859 10.838,-11.0736 10.838,-11.0735 -8.2939,-21.9044 c -4.6816,-12.3641 -7.7487,-22.272898 -7.042,-22.750598 0.6886,-0.4655 4.9165,-3.6963 9.3954,-7.1796 4.4789,-3.4834 8.551,-6.3334 9.0491,-6.3334 0.4981,0 9.1916,6.0072 19.31886,13.3493 l 18.41325,13.349298 11.11571,-6.6196 c 17.66299,-10.518698 16.06819,-6.634998 13.31837,-32.433398 -1.31049,-12.2949 -2.04221,-22.6978 -1.62602,-23.1176 0.79437,-0.8011 5.96278,-3.0974 16.22482,-7.2083 l 6.1348,-2.4576 13.8652,16.7356 c 7.62587,9.2045 14.21039,17.2764 14.63228,17.9374 0.4241,0.6645 7.57816,-0.5468 16,-2.709 l 15.23292,-3.9109 1.5272,-7.7909 c 0.83995,-4.285 2.56272,-14.8069 3.82836,-23.3819 l 2.30118,-15.5909 7.50496,-0.9616 c 4.12774,-0.5289 9.81305,-1.013 12.63401,-1.0757 l 5.12902,-0.1142 9.34495,20.6667 9.34493,20.6667 h 15.84395 15.84395 l 8.97624,-21.6667 8.97622,-21.6667 5.37252,0.1286 c 2.9549,0.071 8.6572,0.8207 12.6717,1.6667 l 7.2992,1.5381 3.4049,22.6666 3.4049,22.6667 8.6293,2.1411 c 4.746,1.1777 11.7097,3.0747 15.4747,4.2156 l 6.8456,2.0745 13.1544,-15.9972 c 7.235,-8.7984 13.901,-16.9554 14.8135,-18.1266 1.4937,-1.9172 2.6893,-1.6853 12,2.3279 5.6875,2.4515 10.8767,4.9271 11.5314,5.5014 1.05279,0.9235 -0.7817,31.7658 -2.5721,43.2421 -0.6086,3.9011 -0.1563,4.3176 12.67019,11.666698 7.3158,4.1916 13.6091,7.6212 13.9852,7.6212 0.3761,0 8.9223,-5.9571 18.9916,-13.237998 l 18.3077,-13.238 5.3802,4.0366 c 2.9591,2.2202 7.3227,5.3273 9.697,6.9047 2.3742,1.5774 4.3242,3.4263 4.3333,4.1086 0.01,0.6823 -3.6322,10.702498 -8.0918,22.266998 l -8.1082,21.0265 11.1082,11.2675 11.1083,11.2675 21.9081,-8.5153 c 12.0495,-4.6835 22.00261,-8.374 22.11811,-8.2013 0.1156,0.1728 3.3069,4.4536 7.0919,9.513 3.7851,5.0594 6.8819,9.6114 6.8819,10.1157 0,0.5043 -5.9883,9.2263 -13.3073,19.3824 l -13.30741,18.4655 2.6963,4.0854 c 1.4829,2.247 4.9212,8.1253 7.64061,13.0629 2.7195,4.9375 5.8445,8.9868 6.9445,8.9985 1.1,0.012 11.2569,-1.1713 22.5709,-2.6287 11.314,-1.4574 20.7257,-2.495 20.9149,-2.3058 1.6066,1.6066 9.6041,23.0345 8.8397,23.6845 -0.5457,0.464 -8.1922,6.7304 -16.9922,13.9254 -8.8,7.1949 -16.4582,13.4799 -17.0182,13.9667 -0.8387,0.729 6.0025,30.2055 7.2882,31.4024 0.2182,0.2031 10.5039,1.8888 22.8572,3.7461 12.3532,1.8572 22.6621,3.5784 22.9086,3.8248 0.7752,0.7753 3.5996,23.8844 2.9932,24.4908 -0.3176,0.3176 -9.7378,4.7226 -20.9338,9.7887 l -20.3562,9.2113 -0.2029,15.932 -0.2028,15.932 20.6667,9.071 c 11.3667,4.9891 21.0474,9.4262 21.5127,9.8603 0.4653,0.4341 0.3314,4.9893 -0.2977,10.1226 -1.98,16.1572 -0.01,14.5232 -21.5202,17.8487 -10.4655,1.6179 -20.8281,3.2595 -23.0281,3.6479 -3.8943,0.6876 -4.0996,1.1142 -7.7635,16.1271 -3.103,12.7139 -3.454,15.7024 -2,17.0254 0.9699,0.8825 8.8135,7.4133 17.4301,14.5128 8.6167,7.0994 15.6667,13.4295 15.6667,14.0668 0,1.5489 -8.032,20.5459 -9.1335,21.6023 -0.4766,0.4571 -10.1665,-0.2625 -21.5332,-1.599 -11.3666,-1.3366 -21.6232,-2.4606 -22.7924,-2.4977 -1.3093,-0.042 -5.0223,4.8629 -9.66671,12.7687 -4.1475,7.06 -7.5409,13.2621 -7.5409,13.7824 0,0.5203 5.9571,9.2121 13.23801,19.3152 l 13.2379,18.3692 -6.6616,9.1589 c -3.6639,5.0374 -7.1681,9.4719 -7.787,9.8545 -0.619,0.3825 -9.42831,-2.525 -19.57631,-6.4611 -10.1481,-3.9362 -19.8744,-7.6026 -21.6141,-8.1477 -2.7278,-0.8546 -4.6772,0.5153 -14.1658,9.9545 l -11.0027,10.9456 8.3852,21.9168 8.3852,21.9168 -9.8871,7.4416 c -6.9139,5.2038 -10.388,7.0625 -11.5528,6.1808 -0.916,-0.6934 -9.3853,-6.8631 -18.8206,-13.7104 -17.1034,-12.4122 -17.1655,-12.443 -20.6666,-10.2372 -1.9314,1.2169 -7.8543,4.7635 -13.162,7.8815 -6.89529,4.0505 -9.64619,6.4302 -9.63599,8.3356 0.01,1.4667 1.1867,10.4667 2.6197,20 1.43289,9.5333 2.61909,18.9094 2.63599,20.8358 0.032,3.6101 -0.2084,3.7594 -18.24889,11.3536 l -4.2796,1.8014 -7.2074,-8.9954 -7.2075,-8.9954 -0.9163,-12.6255 c -0.5039,-6.9441 -1.1192,-12.8284 -1.3671,-13.0764 -0.248,-0.248 -9.9161,-2.0954 -21.4848,-4.1053 l -21.0339,-3.6545 -1.5881,-4.6025 c -3.8104,-11.0424 -4.4654,-9.9061 7.6691,-13.3029 110.94539,-31.0563 191.83129,-127.3659 203.6146,-242.4408 6.3981,-62.4835 -10.38951,-129.4614 -45.66531,-182.1921 -20.8951,-31.2343 -54.7808,-64.092 -85.04699,-82.4671 -14.935,-9.0672 -43.9385,-22.6387 -59.8738,-28.0164 -55.97659,-18.890498 -120.37594,-18.877498 -176.00005,0.036 -81.97014,27.8711 -146.49913,90.9561 -175.71313,171.7812 -25.0565,69.3227 -20.531,148.9338 12.2775,215.9801 14.479,29.5887 30.338,51.7144 54.04328,75.3985 34.70921,34.6781 74.90583,58.3103 122.39235,71.9564 6.22828,1.7898 9.66666,3.4596 9.66666,4.6945 0,1.5626 -3.68856,12.2764 -4.71269,13.6886 -0.21311,0.2938 -41.38572,8.2223 -42.95397,8.2714 -0.18334,0.01 -0.33334,6.068 -0.33334,13.4715 v 13.461 l -6.33333,7.7966 c -3.48333,4.2881 -6.63333,7.7773 -7,7.7537 -0.36667,-0.024 -5.16667,-2.0708 -10.66667,-4.5494 z"
     id="path3452"
     inkscape:connector-curvature="0" />
</svg>
