<?xml version="1.0" encoding="UTF-8" standalone="no"?>
<!-- Created with Inkscape (http://www.inkscape.org/) -->

<svg
   xmlns:dc="http://purl.org/dc/elements/1.1/"
   xmlns:cc="http://creativecommons.org/ns#"
   xmlns:rdf="http://www.w3.org/1999/02/22-rdf-syntax-ns#"
   xmlns:svg="http://www.w3.org/2000/svg"
   xmlns="http://www.w3.org/2000/svg"
   xmlns:sodipodi="http://sodipodi.sourceforge.net/DTD/sodipodi-0.dtd"
   xmlns:inkscape="http://www.inkscape.org/namespaces/inkscape"
   sodipodi:docname="logo.svg"
   inkscape:version="0.92.2 5c3e80d, 2017-08-06"
   id="svg1146"
   version="1.1"
   viewBox="0 0 38.457266 38.457266"
   height="145.3503"
   width="145.3503">
  <sodipodi:namedview
     units="px"
     inkscape:window-maximized="1"
     inkscape:window-y="27"
     inkscape:window-x="0"
     inkscape:window-height="1016"
     inkscape:window-width="1920"
     fit-margin-bottom="0"
     fit-margin-right="0"
     fit-margin-left="0"
     fit-margin-top="0"
     showgrid="false"
     inkscape:current-layer="layer1"
     inkscape:document-units="px"
     inkscape:cy="212.47634"
     inkscape:cx="415.48541"
     inkscape:zoom="0.49497475"
     inkscape:pageshadow="2"
     inkscape:pageopacity="0.0"
     borderopacity="1.0"
     bordercolor="#666666"
     pagecolor="#ffffff"
     id="base"
     showguides="true"
     inkscape:guide-bbox="true"
     inkscape:snap-global="false" />
  <defs
     id="defs1140" />
  <metadata
     id="metadata1143">
    <rdf:RDF>
      <cc:Work
         rdf:about="">
        <dc:format>image/svg+xml</dc:format>
        <dc:type
           rdf:resource="http://purl.org/dc/dcmitype/StillImage" />
        <dc:title></dc:title>
      </cc:Work>
    </rdf:RDF>
  </metadata>
  <g
     transform="translate(-131.38639,-135.46949)"
     id="layer1"
     inkscape:groupmode="layer"
     inkscape:label="Calque 1">
    <g
       id="g1500">
      <path
         style="fill:#4a4949;fill-opacity:1;stroke-width:0.059237"
         d="m 148.37523,168.69561 c -0.1005,-0.0437 -0.23752,-0.14921 -0.30448,-0.23433 l -0.12174,-0.15477 -0.34713,0.1626 c -0.3055,0.1431 -0.41462,0.16208 -0.90988,0.15816 -0.88655,-0.007 -2.42247,-0.28437 -2.95613,-0.53382 -0.60405,-0.28235 -1.15077,-0.84006 -1.46456,-1.49404 -0.12618,-0.26294 -0.2654,-0.47971 -0.30938,-0.48168 -0.14601,-0.006 -0.4712,-0.39219 -0.5371,-0.63694 -0.049,-0.18195 -0.10847,-0.25919 -0.24226,-0.3146 -0.0975,-0.0404 -0.17732,-0.1052 -0.17732,-0.144 0,-0.0705 0.28658,-0.93841 0.40227,-1.21829 0.0337,-0.0815 0.11997,-0.30137 0.19178,-0.4887 0.0718,-0.18734 0.15569,-0.34062 0.18641,-0.34062 0.0307,0 0.0399,-0.0258 0.0203,-0.0574 -0.0196,-0.0316 0.0706,-0.33147 0.20021,-0.66642 0.12963,-0.33493 0.33543,-0.86963 0.45733,-1.18823 l 0.22162,-0.57926 0.30032,0.0136 c 0.19808,0.009 0.36916,-0.023 0.50249,-0.0937 0.13341,-0.0708 0.27601,-0.0973 0.4193,-0.0781 0.54778,0.0734 1.27754,-0.58944 1.75461,-1.59387 0.11041,-0.23245 0.20074,-0.44806 0.20074,-0.47913 0,-0.031 0.31988,-0.9048 0.71084,-1.94162 0.39097,-1.03681 0.70881,-1.91412 0.70632,-1.94958 -0.002,-0.0354 -0.28904,-0.2041 -0.63679,-0.37475 -1.045,-0.51281 -2.13191,-1.40368 -2.24052,-1.8364 -0.0196,-0.0782 0.0238,-0.34655 0.0966,-0.59706 0.45331,-1.56039 0.59485,-2.01699 1.01697,-3.28076 0.25792,-0.77221 0.56088,-1.65127 0.67324,-1.95347 l 0.20428,-0.54946 -0.19774,-0.20867 c -0.2677,-0.28253 -0.29396,-0.38766 -0.1764,-0.70622 0.13949,-0.37797 0.17903,-0.41823 0.59741,-0.60844 0.48465,-0.22032 0.53247,-0.36628 0.22977,-0.70133 -0.24244,-0.26835 -0.253,-0.33345 -0.11497,-0.70829 0.1333,-0.36197 0.21058,-0.4415 0.58664,-0.60372 0.31575,-0.1362 0.32399,-0.14609 0.45347,-0.54411 0.15265,-0.46929 0.23726,-0.5455 0.90056,-0.81109 2.13919,-0.85658 4.65972,-0.63918 7.11089,0.61332 0.62566,0.3197 1.34313,0.78137 1.83612,1.18148 0.75945,0.61636 1.71685,1.71143 2.02899,2.32074 0.11955,0.23338 0.11955,0.23339 0.002,0.65159 -0.0647,0.23003 -0.14323,0.46705 -0.17464,0.52673 -0.0429,0.0816 -0.0214,0.16246 0.0866,0.3258 0.079,0.11952 0.17987,0.31749 0.22409,0.43996 0.071,0.19685 0.0676,0.26049 -0.0305,0.54896 -0.061,0.17947 -0.15045,0.35917 -0.19876,0.39934 -0.0483,0.0402 -0.24834,0.0863 -0.44447,0.10264 -0.32115,0.0267 -0.36177,0.0451 -0.40848,0.18607 -0.0421,0.12674 -0.0176,0.21049 0.12864,0.44107 0.21088,0.33252 0.22681,0.55819 0.0659,0.93356 -0.1375,0.32077 -0.28648,0.41184 -0.62917,0.38458 l -0.25722,-0.0204 -0.45305,1.21455 c -0.46643,1.25044 -1.07244,2.92801 -1.5087,4.17639 -0.2682,0.76748 -0.38817,0.93183 -0.7545,1.03356 -0.50817,0.14113 -2.17088,-8.8e-4 -2.49465,-0.21295 -0.0776,-0.0508 -0.12289,-0.063 -0.10067,-0.027 0.052,0.0841 0.0991,0.0927 -0.61819,-0.11233 -0.34195,-0.0977 -0.62594,-0.17771 -0.63109,-0.17771 -0.0301,0 -1.4825,3.14678 -1.68652,3.65401 -0.32427,0.80614 -0.27764,1.7637 0.13029,2.67603 l 0.19377,0.43336 0.25487,-0.0383 c 0.39061,-0.0586 0.76082,0.12646 0.90982,0.45474 0.0635,0.13988 0.116,0.30052 0.11672,0.35699 9.7e-4,0.0628 0.11454,0.16005 0.29329,0.25063 0.1606,0.0814 0.30706,0.17235 0.32548,0.20215 0.0184,0.0298 -0.0633,0.31687 -0.1817,0.63793 -0.11836,0.32105 -0.24953,0.67703 -0.29149,0.79106 -0.47071,1.27901 -1.22342,3.23536 -1.2582,3.27014 -0.0243,0.0244 -0.21404,-0.007 -0.42151,-0.0699 l -0.3772,-0.1142 -0.1199,0.15241 c -0.1329,0.16897 -0.43807,0.31703 -0.64604,0.31346 -0.0743,-0.002 -0.21742,-0.0381 -0.31792,-0.0819 z m 0.66012,-0.18124 c 0.0995,-0.0759 0.10304,-0.0957 0.0261,-0.14719 -0.11563,-0.0773 -0.42363,-0.0774 -0.6269,-1e-4 -0.15421,0.0586 -0.15617,0.0645 -0.0483,0.14621 0.14722,0.11144 0.50366,0.11206 0.64905,8.8e-4 z m -1.88503,-0.0791 c 0.0412,-0.0262 -0.2183,-0.0808 -0.59237,-0.12492 -0.73925,-0.087 -0.89788,-0.0888 -1.03637,-0.0113 -0.0683,0.0383 0.0113,0.0691 0.28616,0.1112 0.47483,0.0726 1.24497,0.087 1.34258,0.025 z m 3.4606,-1.24249 c 0.21688,-0.57696 0.39015,-1.05209 0.38504,-1.05583 -0.0778,-0.0572 -1.90392,-0.84318 -1.92047,-0.82663 -0.0225,0.0224 -0.90256,2.39599 -0.90256,2.43416 0,0.0173 0.49791,0.17462 1.54016,0.48647 0.2268,0.0679 0.40938,0.0938 0.44428,0.063 0.0326,-0.0287 0.23668,-0.52424 0.45355,-1.10119 z m -0.93424,0.79763 c -0.14982,-0.0565 -0.17626,-0.0918 -0.14069,-0.18801 0.0866,-0.23436 -0.0829,-0.29233 -0.18697,-0.0639 -0.0359,0.0789 -0.0994,0.13035 -0.141,0.11438 -0.0574,-0.0221 -0.0413,-0.11361 0.0666,-0.37918 0.17164,-0.42241 0.17102,-0.41173 0.0238,-0.41173 -0.0652,0 -0.11848,0.0284 -0.11848,0.0631 0,0.0347 -0.0572,0.19606 -0.12713,0.35861 -0.197,0.45795 -0.27554,0.27114 -0.0943,-0.22433 0.316,-0.86389 0.35139,-0.97569 0.31913,-1.00795 -0.10025,-0.10026 -0.21998,0.10007 -0.42795,0.71602 -0.13106,0.38818 -0.26427,0.68696 -0.30626,0.68696 -0.0409,0 -0.0743,-0.0242 -0.0743,-0.0538 0,-0.0433 0.3604,-1.08446 0.66121,-1.91021 l 0.0573,-0.15727 0.42564,0.19492 c 0.2341,0.1072 0.57891,0.26425 0.76624,0.34898 0.18734,0.0847 0.34062,0.1804 0.34062,0.21258 0,0.0322 -0.0761,0.25245 -0.16904,0.4895 -0.093,0.23707 -0.24191,0.62428 -0.33098,0.86048 -0.17293,0.4586 -0.20418,0.47878 -0.54342,0.35091 z m -3.9179,0.0695 c 0.20376,-0.0702 0.54374,-0.23333 0.75551,-0.36257 l 0.38504,-0.235 0.52836,0.12744 c 0.2906,0.0701 0.54994,0.10585 0.57633,0.0794 0.0433,-0.0432 0.84801,-2.18594 0.89137,-2.37328 0.0119,-0.0513 -0.25435,-0.17762 -0.7797,-0.37023 -0.43874,-0.16085 -0.81368,-0.29246 -0.83322,-0.29246 -0.0196,0 -0.0945,0.1424 -0.16669,0.31644 -0.16042,0.38703 -0.6855,1.03532 -1.06264,1.312 -0.6033,0.44258 -1.40236,0.55725 -1.94223,0.27873 -0.26212,-0.13522 -0.59653,-0.47019 -0.78439,-0.7857 -0.28479,-0.47832 -0.38334,-1.42051 -0.21954,-2.09887 0.0472,-0.19549 0.0868,-0.37114 0.0879,-0.39035 0.003,-0.0468 -0.27774,-0.17241 -0.38492,-0.17241 -0.0469,0 -0.12506,0.0952 -0.17369,0.21159 -0.12157,0.29097 -0.22666,0.20775 -0.11987,-0.0949 l 0.0831,-0.23568 -0.19515,-0.0816 c -0.406,-0.16964 -0.43137,-0.1693 -0.4991,0.006 -0.22595,0.5865 -0.72237,1.97568 -0.72237,2.02146 0,0.0304 0.17411,0.14477 0.38692,0.2542 0.28125,0.14465 0.39675,0.23944 0.4229,0.34708 0.21215,0.87315 0.861,1.8477 1.51589,2.27681 0.61868,0.40537 1.52583,0.51071 2.25011,0.26128 z m 0.34208,-0.39074 c 0.002,-0.0634 0.71064,-0.50742 0.74893,-0.46914 0.0539,0.0539 -0.0282,0.1396 -0.31611,0.33033 -0.26734,0.17707 -0.43537,0.23096 -0.43282,0.13881 z m -2.68181,-0.0495 c -0.0481,-0.0481 0.0735,-0.38 0.13919,-0.38 0.0617,0 0.0669,0.0918 0.0161,0.28137 -0.0354,0.13199 -0.0883,0.16561 -0.15529,0.0986 z m 4.37214,-0.1377 c -0.0465,-0.0752 0.18531,-0.59772 0.26515,-0.59772 0.0689,0 0.0443,0.11893 -0.0948,0.45908 -0.0824,0.20151 -0.11506,0.22808 -0.17034,0.13864 z m -4.89036,-0.39275 c 0,-0.13418 0.22922,-0.56039 0.30139,-0.56039 0.0654,0 0.0395,0.11547 -0.10191,0.45392 -0.0856,0.20496 -0.19948,0.26571 -0.19948,0.10647 z m -0.35541,-0.61238 c 0,-0.12206 0.15041,-0.2783 0.19509,-0.20265 0.0412,0.0698 -0.0629,0.31387 -0.13395,0.31387 -0.0336,0 -0.0611,-0.05 -0.0611,-0.11122 z m -0.22333,-0.49596 c 0.0145,-0.0407 0.0889,-0.25397 0.16538,-0.47389 0.0823,-0.23671 0.17289,-0.39985 0.22193,-0.39985 0.0456,0 0.0692,0.0333 0.0525,0.074 -0.0167,0.0407 -0.0908,0.25397 -0.16469,0.47389 -0.081,0.24108 -0.16754,0.39985 -0.21791,0.39985 -0.0459,0 -0.0717,-0.0333 -0.0572,-0.074 z m -0.19133,-0.60012 c 0,-0.0343 0.30023,-0.82463 0.33403,-0.87932 0.0163,-0.0263 0.053,-0.0333 0.0817,-0.0156 0.0757,0.0467 -0.24492,0.91749 -0.33784,0.91749 -0.0429,0 -0.0779,-0.0102 -0.0779,-0.0225 z m -0.27775,-0.61423 c 0.0504,-0.24712 0.3894,-0.96261 0.45604,-0.96261 0.0832,0 0.0818,0.005 -0.15885,0.5937 -0.20953,0.5123 -0.36614,0.7067 -0.29719,0.36891 z m -0.4331,0.0395 c 0,-0.12178 0.60985,-1.59448 0.66029,-1.59448 0.10966,0 0.0486,0.1956 -0.40237,1.2884 -0.13759,0.33342 -0.25792,0.47622 -0.25792,0.30608 z m 3.80924,1.68941 c 0.0705,-0.027 0.0752,-0.0718 0.025,-0.23551 -0.054,-0.17587 -0.10119,-0.21333 -0.36353,-0.28844 -0.16583,-0.0474 -0.55005,-0.15722 -0.85382,-0.24388 -0.30378,-0.0867 -0.56699,-0.1429 -0.58492,-0.12498 -0.0179,0.0179 0.0588,0.16035 0.17041,0.3165 0.28474,0.3982 0.68009,0.60651 1.15451,0.6083 0.20096,8.9e-4 0.40453,-0.0136 0.45238,-0.032 z m 1.08437,-0.70104 c 0.69238,-0.69153 1.03615,-1.53041 1.04628,-2.55324 0.006,-0.61526 -0.12864,-1.21495 -0.27271,-1.21379 -0.0381,9e-5 -0.20587,0.0789 -0.3728,0.17463 -0.60878,0.34916 -1.19261,1.2017 -1.42158,2.07581 -0.17312,0.66093 -0.10952,1.62252 0.13228,1.99986 0.0833,0.12992 0.0915,0.13098 0.27656,0.0356 0.10491,-0.054 0.3803,-0.28755 0.61197,-0.51892 z m 5.11354,-0.7822 c 0.19209,-0.51795 0.36666,-0.98566 0.38794,-1.03936 0.031,-0.0783 -0.14513,-0.19409 -0.88744,-0.58353 -0.50937,-0.26722 -0.94435,-0.46782 -0.96663,-0.44578 -0.0978,0.0968 -0.82078,2.13903 -0.77489,2.18895 0.0555,0.0603 1.8501,0.86055 1.87583,0.83641 0.009,-0.008 0.17311,-0.43874 0.36519,-0.95669 z m -1.31032,0.37082 c -0.38072,-0.16803 -0.70524,-0.31903 -0.72114,-0.33555 -0.0455,-0.0474 0.58854,-1.78415 0.64869,-1.77686 0.0972,0.0118 0.0281,0.31508 -0.23609,1.03682 -0.15536,0.42444 -0.23888,0.73352 -0.20728,0.76712 0.0903,0.096 0.15514,-0.0258 0.43685,-0.81997 0.3075,-0.8668 0.32092,-0.89502 0.39199,-0.82396 0.0294,0.0294 0.002,0.18172 -0.063,0.35361 -0.0631,0.16605 -0.0983,0.31839 -0.0781,0.33851 0.0924,0.0924 0.1749,0.0137 0.27195,-0.25958 0.11528,-0.32459 0.25345,-0.41112 0.18918,-0.11848 -0.0307,0.14006 -0.0188,0.17771 0.0564,0.17771 0.0525,0 0.11077,-0.04 0.12952,-0.0889 0.0458,-0.11927 0.15869,-0.1119 0.43349,0.0283 l 0.22962,0.11715 -0.32084,0.83419 c -0.17647,0.45881 -0.32085,0.84593 -0.32085,0.86026 0,0.0622 -0.19039,-0.004 -0.84032,-0.29041 z m -5.06909,0.15 c -0.0235,-0.16021 -0.058,-0.17601 -0.91333,-0.41912 -0.48889,-0.13895 -0.90036,-0.24116 -0.91437,-0.22716 -0.014,0.014 -0.002,0.0893 0.0269,0.16736 0.0442,0.11958 0.17713,0.181 0.84539,0.39053 0.96794,0.30349 0.98721,0.30528 0.95538,0.0884 z m 4.09506,-0.88498 c 0.0829,-0.21991 0.26889,-0.71972 0.4132,-1.11069 l 0.26238,-0.71084 -0.25401,-0.14843 c -0.8655,-0.50576 -1.41974,-1.22233 -1.59693,-2.06465 -0.20358,-0.96775 -0.12418,-1.32143 0.7532,-3.35521 0.39354,-0.91224 0.80124,-1.85856 0.906,-2.1029 0.10476,-0.24436 0.23652,-0.55092 0.29282,-0.68123 0.0563,-0.13033 0.0836,-0.21873 0.0606,-0.19646 -0.023,0.0223 -0.1524,-0.0398 -0.2876,-0.13792 l -0.24582,-0.17842 -0.0386,0.37487 c -0.0386,0.37454 -0.1445,0.64787 -1.24701,3.21825 -0.20961,0.48871 -0.45775,1.07515 -0.55141,1.30321 -0.31195,0.75965 -0.73356,0.99664 -1.14987,0.64635 -0.16296,-0.13712 -0.18225,-0.18796 -0.18225,-0.48017 0,-0.28763 0.11014,-0.59058 0.91877,-2.52712 1.0575,-2.53253 1.07653,-2.57189 1.32645,-2.7436 0.10297,-0.0708 0.16639,-0.14149 0.14093,-0.15721 -0.11363,-0.0702 -0.75911,-0.20938 -0.79381,-0.17124 -0.0541,0.0595 -1.38175,3.50448 -1.67144,4.33711 -0.41628,1.19647 -0.61143,1.56517 -1.11116,2.09939 -0.48667,0.52025 -1.00226,0.75426 -1.76204,0.7997 l -0.55401,0.0331 -0.13246,0.3258 c -0.0729,0.17919 -0.17296,0.4191 -0.22245,0.53313 -0.19016,0.43819 -0.34456,0.86483 -0.34341,0.94894 9.7e-4,0.0541 0.222,0.18213 0.57756,0.33419 l 0.57636,0.24647 0.26557,-0.51304 c 0.6295,-1.21609 1.73063,-1.86076 2.7012,-1.58145 0.46366,0.13343 0.94085,0.60478 1.14162,1.12765 0.19256,0.5015 0.23439,1.28859 0.10046,1.89058 -0.0562,0.25235 -0.0931,0.46721 -0.0822,0.47748 0.0382,0.0358 1.50138,0.55951 1.5697,0.56183 0.0379,0.002 0.13674,-0.1776 0.21969,-0.39752 z m -0.0812,-0.83174 c 0,-0.0666 0.12578,-0.42061 0.26506,-0.74583 0.0601,-0.14037 0.11975,-0.20865 0.15309,-0.17531 0.0652,0.0651 -0.24892,0.92146 -0.35038,0.95527 -0.0373,0.0124 -0.0678,-0.003 -0.0678,-0.0341 z m -5.98294,-1.11017 c 0,-0.14988 0.16683,-0.50161 0.23792,-0.50161 0.0734,0 0.0352,0.16589 -0.0988,0.42947 -0.093,0.18286 -0.13907,0.20674 -0.13907,0.0721 z m -0.69196,-0.54604 c 0.0529,-0.16779 0.51747,-1.28175 0.54671,-1.31099 0.0147,-0.0147 0.044,-0.01 0.065,0.0115 0.0648,0.0649 -0.47109,1.40319 -0.5619,1.40319 -0.0516,0 -0.0703,-0.0389 -0.0498,-0.10366 z m 0.63272,-0.64469 c 0,-0.0771 0.19338,-0.57824 0.25387,-0.65787 0.13249,-0.17443 0.14093,0.0133 0.0146,0.32383 -0.11911,0.29277 -0.26844,0.47859 -0.26844,0.33404 z m 0.51908,-0.23324 c -0.0186,-0.0187 0.003,-0.10523 0.049,-0.19252 0.0455,-0.0873 0.083,-0.19203 0.0832,-0.23276 1e-4,-0.0407 0.0403,-0.074 0.0892,-0.074 0.11016,0 0.11008,0.004 -0.006,0.29498 -0.0916,0.22889 -0.14225,0.27705 -0.21496,0.20435 z m 4.19915,-0.36411 c -0.11535,-0.22366 -0.14948,-0.67969 -0.0533,-0.71233 0.0482,-0.0164 0.074,0.036 0.074,0.15006 0,0.0964 0.0386,0.28449 0.0857,0.41807 0.0995,0.28202 0.0201,0.38958 -0.10641,0.1442 z m -2.68762,3.87808 c 0.0165,-0.10588 0.0129,-0.21031 -0.008,-0.23207 -0.0369,-0.0383 -1.75745,-0.7009 -1.82012,-0.7009 -0.0171,0 -0.023,0.12452 -0.0131,0.27672 l 0.018,0.27672 0.82932,0.28136 c 0.45613,0.15475 0.85962,0.28346 0.89664,0.28603 0.037,0.003 0.0808,-0.082 0.0973,-0.18786 z m 0.45735,-1.42545 c 0.14661,-0.29929 0.27464,-0.56172 0.2845,-0.58318 0.01,-0.0215 -0.12341,-0.0921 -0.29618,-0.15702 -0.17277,-0.065 -0.56032,-0.22661 -0.86123,-0.35932 -0.3009,-0.1327 -0.58343,-0.22734 -0.62783,-0.2103 -0.0444,0.0171 -0.20634,0.26923 -0.35988,0.56045 l -0.27917,0.52946 0.19615,0.0899 c 0.53449,0.24512 1.56556,0.67508 1.61784,0.67463 0.0326,-1e-4 0.17919,-0.24538 0.3258,-0.54467 z m 5.68675,-0.10284 c 0,-0.14555 -0.1929,-0.41653 -0.35689,-0.50133 -0.17262,-0.0893 -0.17905,-0.0875 -0.25006,0.0683 -0.0455,0.0998 -0.0509,0.16742 -0.0144,0.1798 0.0322,0.0109 0.16517,0.0855 0.29549,0.16576 0.26347,0.16225 0.3258,0.17898 0.3258,0.0875 z m -1.54097,-1.22622 c -0.004,-0.23 -0.11104,-0.32862 -0.69257,-0.63916 -0.34169,-0.18247 -0.63521,-0.31781 -0.65225,-0.30077 -0.017,0.0171 0.0195,0.11888 0.0811,0.22629 0.0812,0.14153 0.25857,0.27222 0.64388,0.47453 0.54626,0.28683 0.62121,0.31574 0.61981,0.23911 z m -0.23176,-0.9733 c -0.0339,-0.25251 -0.0366,-0.25495 -0.65598,-0.59302 -0.3421,-0.1867 -0.64199,-0.34049 -0.66642,-0.34176 -0.0552,-0.003 -0.0509,0.28587 0.006,0.43128 0.0401,0.10182 1.24353,0.80937 1.31601,0.77375 0.0187,-0.009 0.0187,-0.1308 0,-0.27025 z m 0.0146,-0.96848 c 0.0285,-0.30556 0.11943,-0.57368 0.41733,-1.23108 0.57692,-1.27309 0.67926,-1.49537 1.02266,-2.22123 l 0.31694,-0.66993 -0.11908,-0.23343 c -0.0787,-0.15417 -0.15929,-0.23344 -0.23749,-0.23344 -0.0953,0 -0.11145,-0.0276 -0.0829,-0.14163 0.0666,-0.26528 -0.0914,-0.23136 -0.21409,0.0459 -0.11627,0.26285 -0.21215,0.37408 -0.2714,0.31483 -0.0163,-0.0163 0.0403,-0.16775 0.12584,-0.33652 0.17469,-0.34475 0.18498,-0.64006 0.0109,-0.3121 -0.10244,0.19296 -0.21947,0.25729 -0.21554,0.11847 0.001,-0.0407 0.0402,-0.14069 0.0868,-0.22214 0.1005,-0.1758 0.11354,-0.31428 0.0269,-0.28539 -0.0341,0.0114 -0.24739,0.44547 -0.474,0.96468 -0.22661,0.51921 -0.43818,0.97018 -0.47016,1.00216 -0.17821,0.17822 -0.0854,-0.12817 0.31768,-1.04865 0.41644,-0.95099 0.5662,-1.35594 0.36381,-0.98374 -0.11862,0.21815 -1.45301,3.31152 -1.4497,3.36068 0.002,0.0225 0.0687,-0.0856 0.14924,-0.24041 0.0806,-0.15476 0.17261,-0.28138 0.20456,-0.28138 0.0916,0 0.0695,0.0999 -0.0933,0.42116 -0.11741,0.2317 -0.16872,0.28434 -0.22868,0.23458 -0.0603,-0.05 -0.11023,0.0109 -0.22703,0.27686 -0.21095,0.48043 -0.33206,0.89129 -0.35056,1.18936 l -0.0159,0.25599 0.64755,0.34685 c 0.35615,0.19077 0.66457,0.33633 0.68537,0.32348 0.0208,-0.0129 0.0542,-0.19915 0.0743,-0.41399 z m 0.33643,-3.93265 c 0,-0.12153 0.0768,-0.24179 0.15443,-0.24179 0.0986,0 0.10217,0.0303 0.0212,0.1816 -0.0632,0.11806 -0.17563,0.15659 -0.17563,0.0602 z m -2.72328,3.27072 c 0.19903,-0.13718 0.27038,-0.23826 0.38868,-0.55066 0.0884,-0.23358 1.18564,-2.81671 1.43418,-3.37652 0.0506,-0.11402 0.0991,-0.23398 0.10767,-0.26655 0.009,-0.0326 0.0855,-0.22727 0.17086,-0.43264 0.20456,-0.49197 0.18445,-0.6865 -0.0735,-0.71139 -0.2379,-0.0229 -0.42601,0.16074 -0.58001,0.56641 -0.0588,0.15478 -0.47557,1.17019 -0.92624,2.25645 -0.79791,1.92322 -0.89425,2.23338 -0.78345,2.52215 0.0455,0.11845 0.0809,0.11747 0.26186,-0.007 z m 8.3126,-3.28442 c 0.23565,-0.12168 0.33438,-0.2456 0.33438,-0.41972 0,-0.62142 -2.77099,-2.31924 -5.05069,-3.09463 -2.10981,-0.71761 -4.83607,-1.10841 -5.77893,-0.82842 -0.28069,0.0833 -0.30694,0.10625 -0.30694,0.26766 0,0.3528 1.07655,1.23779 2.22139,1.82612 0.26064,0.13395 0.50787,0.24359 0.54941,0.24366 0.0658,1.1e-4 0.19105,-0.22639 0.19105,-0.34537 0,-0.0229 -0.16294,-0.10631 -0.36209,-0.18542 -0.42608,-0.16923 -1.15203,-0.60567 -1.30953,-0.78728 -0.0608,-0.0702 -0.10277,-0.18207 -0.0932,-0.24878 0.0394,-0.27535 1.37664,-0.15962 3.03844,0.26298 2.12795,0.54113 5.01342,1.83158 5.30227,2.37132 0.0485,0.0906 0.0349,0.14121 -0.065,0.24105 l -0.12633,0.12634 0.34712,0.35381 0.34713,0.35381 0.31722,-0.0358 c 0.17447,-0.0197 0.3744,-0.0653 0.44428,-0.10137 z m -2.70757,-0.34696 c -0.20273,-0.24093 -0.51486,-0.50012 -0.72688,-0.60359 l -0.18499,-0.0903 -0.12046,0.26184 -0.12046,0.26185 0.12774,0.0485 c 0.0703,0.0267 0.301,0.0957 0.51278,0.15333 0.21177,0.0576 0.40828,0.12544 0.43668,0.15062 0.0284,0.0252 0.0884,0.0317 0.13324,0.0145 0.0629,-0.0241 0.0497,-0.0693 -0.0576,-0.19677 z m 1.26484,-0.4839 c 0,-0.0308 -0.0216,-0.0424 -0.0482,-0.0261 -0.0917,0.0566 -0.89428,-0.0878 -1.44205,-0.25956 -0.40656,-0.12747 -0.56119,-0.15403 -0.59338,-0.10195 -0.0583,0.0944 0.009,0.1233 0.63232,0.27201 0.9163,0.21857 1.45131,0.26116 1.45131,0.11553 z m 2.16189,-0.58197 c 0.35959,-1.01823 1.11721,-3.09163 1.56627,-4.28648 l 0.41992,-1.11731 -0.11993,-0.19406 c -0.16116,-0.26076 -0.27364,-0.35261 -0.31022,-0.25331 -0.0154,0.0415 -0.21721,0.58202 -0.44866,1.20105 -1.13532,3.03657 -1.66965,4.49634 -1.66746,4.55546 0.002,0.0358 0.0813,0.15732 0.17771,0.27012 0.31446,0.3679 0.17372,0.42815 -0.15365,0.0658 -0.24157,-0.26739 -1.01397,-0.86292 -1.48324,-1.1436 -0.30597,-0.18302 -0.39588,-0.2824 -0.25544,-0.2824 0.0357,0 0.14346,0.0464 0.23946,0.1031 0.21094,0.12462 0.21444,0.1205 0.44019,-0.51676 0.0868,-0.2449 0.49088,-1.3516 0.89803,-2.45933 0.40716,-1.10773 0.77398,-2.12069 0.81516,-2.25101 0.0412,-0.13031 0.10899,-0.31691 0.15067,-0.41466 0.15721,-0.36866 0.14241,-0.40888 -0.25276,-0.68689 -1.242,-0.87378 -2.82787,-1.59414 -4.47264,-2.03162 -0.30097,-0.08 -0.55732,-0.12757 -0.56968,-0.10558 -0.0124,0.022 -0.068,0.17959 -0.12373,0.35025 -0.0943,0.2889 -0.18296,0.4184 -0.2444,0.35696 -0.0142,-0.0142 0.0278,-0.18175 0.0934,-0.37231 0.12809,-0.37229 0.10365,-0.44028 -0.15889,-0.44213 -0.10918,-8.8e-4 -0.15325,0.0737 -0.28879,0.4878 -0.088,0.26879 -0.16328,0.52327 -0.16735,0.56551 -0.004,0.0422 0.16588,0.15103 0.37766,0.24174 0.24809,0.10626 0.37868,0.19481 0.36717,0.24899 -0.0317,0.14935 -1.4438,4.24042 -1.4887,4.31308 -0.0297,0.048 -0.0888,0.0534 -0.1866,0.0171 -0.0787,-0.0293 -0.23688,-0.0703 -0.35139,-0.0912 -0.20553,-0.0375 -0.20953,-0.0343 -0.31099,0.25142 -0.15427,0.43435 -0.14737,0.44807 0.26744,0.5322 0.20363,0.0413 0.42656,0.0886 0.4954,0.1051 0.11172,0.0268 0.14617,-0.0309 0.32066,-0.53713 0.10752,-0.31193 0.21336,-0.56713 0.23519,-0.56713 0.1016,0 0.0865,0.0981 -0.0956,0.62077 l -0.19536,0.56074 0.21964,0.0576 c 0.55691,0.14595 0.51777,0.15316 0.59655,-0.10981 0.0415,-0.13861 0.10881,-0.24073 0.1586,-0.24073 0.10653,0 0.10658,-0.004 -0.004,0.26194 -0.10582,0.25327 -0.087,0.30329 0.13461,0.35675 0.51243,0.12368 1.97019,0.72368 1.97019,0.81093 0,0.0918 -0.15912,0.0547 -0.57203,-0.13308 -1.13385,-0.51578 -3.01227,-1.04299 -4.52235,-1.2693 -0.72585,-0.10879 -2.16491,-0.14693 -2.60643,-0.0691 l -0.26656,0.047 0.15667,-0.13585 c 0.12243,-0.10616 0.2276,-0.36243 0.48118,-1.1725 0.4893,-1.56309 1.01204,-3.18614 1.34027,-4.1614 0.2048,-0.60853 0.27058,-0.87374 0.21668,-0.87374 -0.0426,0 -0.10835,0.0373 -0.14622,0.083 -0.16726,0.20154 -1.49673,4.16039 -2.03814,6.06914 l -0.09,0.31723 0.33595,-0.0506 c 0.96368,-0.14535 2.69951,0.0527 4.52531,0.51611 2.18164,0.55382 4.95181,1.94134 5.99941,3.00498 0.16291,0.16539 0.31335,0.28242 0.33431,0.26006 0.0209,-0.0223 0.13698,-0.32054 0.2578,-0.66264 z m -2.88755,-1.39634 c -0.15733,-0.0854 -0.22021,-0.20306 -0.10846,-0.20306 0.0299,0 0.1364,0.0467 0.23657,0.10366 0.31202,0.17759 0.19023,0.2721 -0.12811,0.0994 z m -2.96874,-3.68524 c -0.0474,-0.0767 1.35173,-4.05973 1.43599,-4.08781 0.12307,-0.041 0.17413,-0.20202 -1.01056,3.18645 -0.30766,0.87998 -0.36438,1.00014 -0.42543,0.90136 z m 1.22219,-1.53816 c 0.0371,-0.20724 0.75495,-2.15842 0.82121,-2.23224 0.0273,-0.0304 0.067,-0.0379 0.0882,-0.0168 0.0519,0.0519 -0.81189,2.41191 -0.88275,2.41191 -0.0307,0 -0.0427,-0.0734 -0.0266,-0.16291 z m 1.22823,-1.00556 c 0,-0.0236 0.0709,-0.22355 0.15745,-0.44428 0.15771,-0.40197 0.30072,-0.54443 0.23935,-0.23841 -0.0517,0.25769 -0.26802,0.72565 -0.33546,0.72565 -0.0337,0 -0.0613,-0.0194 -0.0613,-0.0429 z m 2.71241,7.22544 c 0.25151,-0.70231 1.54201,-4.23434 1.7837,-4.8819 0.16615,-0.44515 0.30209,-0.83837 0.30209,-0.87381 0,-0.0627 -0.65907,-0.72821 -0.69031,-0.69697 -0.009,0.009 -0.24421,0.64098 -0.52353,1.40525 -0.27931,0.76426 -0.54568,1.48285 -0.59193,1.59688 -0.0462,0.11403 -0.31786,0.85799 -0.60358,1.65325 -0.48571,1.35196 -0.51242,1.45014 -0.41094,1.51055 0.0597,0.0355 0.21887,0.14988 0.35372,0.25409 0.13486,0.10421 0.26257,0.19085 0.28382,0.19252 0.0213,0.002 0.0649,-0.0702 0.097,-0.15986 z m -7.74755,-0.77137 c 0,-0.0252 -0.27734,-0.18367 -0.61631,-0.35225 -0.33897,-0.16858 -0.70691,-0.38606 -0.81765,-0.4833 -0.12662,-0.11117 -0.22947,-0.15941 -0.27711,-0.12996 -0.11678,0.0722 0.2841,0.37156 0.95628,0.71419 0.55891,0.28489 0.75479,0.35011 0.75479,0.25132 z m 0.70376,-2.34977 c 0.0353,-0.1402 0.0798,-0.29573 0.099,-0.34561 0.0268,-0.0699 -0.0348,-0.10561 -0.26842,-0.15572 -0.58157,-0.12472 -0.63212,-0.10724 -0.73745,0.25508 -0.12697,0.43675 -0.12351,0.44902 0.12908,0.45699 0.12217,0.004 0.3021,0.0255 0.39984,0.0482 0.25681,0.0595 0.30633,0.0255 0.37796,-0.25892 z m -1.51428,-0.23095 c 0.0548,-0.17391 0.0997,-0.34717 0.0997,-0.38504 0,-0.0479 -0.187,-0.0688 -0.61377,-0.0688 h -0.61376 l -0.12679,0.33131 c -0.0697,0.18221 -0.11184,0.35549 -0.0936,0.38504 0.0183,0.0296 0.30666,0.0537 0.64087,0.0537 h 0.60768 z m 2.49749,-0.21487 c 0.0296,-0.0479 0.62639,-1.76751 1.25953,-3.62922 0.0857,-0.2519 0.1435,-0.47026 0.12852,-0.48524 -0.015,-0.015 -0.51972,-0.083 -1.12166,-0.15117 -0.60193,-0.0681 -1.40098,-0.16187 -1.77565,-0.20824 -0.37468,-0.0464 -0.72451,-0.0854 -0.77741,-0.0869 -0.0743,-0.002 -0.23917,0.43303 -0.72552,1.91459 -0.34614,1.05444 -0.6446,1.99408 -0.66326,2.08811 l -0.0339,0.17095 0.87791,0.01 c 0.48285,0.005 0.83791,-0.004 0.78904,-0.0222 -0.31012,-0.11208 -0.62959,-0.61401 -0.71164,-1.11811 -0.23982,-1.47355 1.32018,-3.25781 2.34066,-2.67712 0.28679,0.16319 0.5367,0.61442 0.59288,1.07048 0.0476,0.38597 -0.0911,1.07809 -0.30244,1.51011 -0.3115,0.63667 -1.09395,1.24502 -1.62327,1.26207 -0.11584,0.004 0.0671,0.0556 0.41466,0.11751 0.34209,0.061 0.75527,0.1482 0.91817,0.19387 0.38561,0.10813 0.37244,0.10683 0.41339,0.0406 z m -1.23452,-0.66206 c 0.28875,-0.13456 0.78774,-0.64288 0.95725,-0.97515 0.43411,-0.85092 0.38996,-1.91445 -0.0978,-2.35554 -0.18729,-0.16939 -0.57963,-0.18837 -0.91332,-0.0442 -0.32999,0.14259 -0.77788,0.57153 -1.00657,0.96403 -0.45833,0.78662 -0.43781,1.84342 0.0452,2.32642 0.29245,0.29244 0.52704,0.31195 1.01525,0.0845 z m -0.83561,-0.29408 c -0.55861,-0.49047 -0.46801,-1.63459 0.18715,-2.36327 0.41681,-0.46359 0.87574,-0.65638 1.22005,-0.51252 0.53455,0.22335 0.66693,1.18499 0.27723,2.01402 -0.2526,0.53739 -0.88619,1.04101 -1.31402,1.04446 -0.0968,8.9e-4 -0.24425,-0.0719 -0.37041,-0.18269 z m 1.0486,-0.285 c 0.10638,-0.0951 0.1801,-0.18471 0.16383,-0.19925 -0.0364,-0.0325 -1.31576,-0.45725 -1.37733,-0.45725 -0.0619,0 -0.0538,0.30792 0.0107,0.40992 0.0435,0.0687 0.80806,0.39681 0.96585,0.41452 0.0239,0.003 0.13053,-0.0729 0.23691,-0.16794 z m 0.42294,-0.51021 c 0.0399,-0.10407 0.0433,-0.10241 -0.92548,-0.46578 -0.52389,-0.19651 -0.69824,-0.24056 -0.70492,-0.17813 -0.005,0.0456 -0.0115,0.11259 -0.0148,0.14881 -0.006,0.0637 1.31601,0.57114 1.51308,0.58092 0.0535,0.003 0.11299,-0.036 0.13212,-0.0858 z m 9.92686,0.65683 c 0.18163,-0.21886 -0.51455,-1.15157 -1.49476,-2.00261 -1.44516,-1.25471 -3.57495,-2.31643 -5.72932,-2.85613 -1.84106,-0.46121 -3.87506,-0.44092 -4.9459,0.0493 -0.41337,0.18925 -0.45587,0.2905 -0.22068,0.52569 l 0.1815,0.18149 0.0862,-0.2062 c 0.10215,-0.24447 0.31561,-0.35953 0.90112,-0.48568 0.63206,-0.13618 1.23131,-0.16586 2.01775,-0.0999 3.03059,0.25404 6.2954,1.69163 8.01398,3.52879 0.37775,0.40383 0.83981,1.02357 0.96012,1.2878 0.084,0.18454 0.12868,0.19958 0.23002,0.0775 z m 0.18877,-0.66786 c -0.0769,-0.1374 -0.14691,0.0144 -0.0963,0.20871 l 0.0415,0.15954 0.0528,-0.13851 c 0.0299,-0.0782 0.0307,-0.17822 0.002,-0.22974 z m -0.64379,-0.84184 c 0.0178,-0.0684 -0.0138,-0.15593 -0.077,-0.21317 -0.10016,-0.0906 -0.11193,-0.0885 -0.17601,0.0312 -0.0558,0.10427 -0.0497,0.14934 0.0328,0.24047 0.11471,0.12675 0.176,0.11046 0.22018,-0.0585 z m 0.4957,-0.40277 c 0.0766,-0.1881 0.13944,-0.37005 0.13959,-0.40436 2.3e-4,-0.10687 -0.36874,-0.57002 -0.41379,-0.51906 -0.0235,0.0266 -0.10427,0.22677 -0.17954,0.44491 l -0.13686,0.39659 0.20233,0.22995 c 0.11129,0.12647 0.21282,0.22184 0.22565,0.21194 0.0128,-0.01 0.086,-0.17189 0.16262,-0.35997 z m 0.78059,-0.0327 c 0.15072,-0.18161 -0.42415,-1.06128 -1.15332,-1.76478 -1.75282,-1.69114 -4.52626,-3.00205 -7.27708,-3.43962 -0.60484,-0.0962 -2.19404,-0.0967 -2.69528,-8.8e-4 -0.83106,0.15898 -1.54016,0.46177 -1.54016,0.65765 0,0.0572 0.071,0.18058 0.15777,0.27421 l 0.15777,0.17024 0.10376,-0.2443 c 0.0894,-0.21041 0.14838,-0.261 0.42539,-0.36465 2.07354,-0.77581 6.09009,0.0714 8.86082,1.86895 1.00487,0.65193 1.94145,1.55573 2.49731,2.40993 0.1792,0.27536 0.34254,0.50252 0.36298,0.50478 0.0204,0.002 0.0655,-0.0299 0.10004,-0.0717 z m -2.00318,-0.36953 c 0,-0.0369 -0.068,-0.13113 -0.15121,-0.20926 -0.1275,-0.11978 -0.15987,-0.12837 -0.20642,-0.0548 -0.0874,0.13823 -0.067,0.24674 0.0748,0.39764 0.1232,0.13114 0.13668,0.13354 0.20733,0.0369 0.0415,-0.0568 0.0755,-0.13358 0.0755,-0.17055 z m 0.61321,-0.36206 0.16893,-0.45064 -0.34424,-0.34786 c -0.18933,-0.19133 -0.36049,-0.32813 -0.38036,-0.304 -0.0199,0.0241 -0.11046,0.23844 -0.20131,0.47626 l -0.16517,0.43239 0.34698,0.32021 c 0.19085,0.17612 0.36033,0.32112 0.37662,0.32225 0.0163,8.8e-4 0.10564,-0.20077 0.19855,-0.44861 z m 1.5936,0.2594 c 0.0325,-0.0968 -0.0162,-0.28138 -0.0743,-0.28138 -0.0581,0 -0.10683,0.18462 -0.0743,0.28138 0.0137,0.0407 0.0471,0.074 0.0743,0.074 0.0271,0 0.0606,-0.0333 0.0743,-0.074 z m -2.66044,-1.15659 c 0.0866,-0.22073 0.15745,-0.44153 0.15745,-0.49066 0,-0.12519 -1.14429,-0.87496 -1.9352,-1.26801 -1.11784,-0.5555 -2.38713,-1.00155 -3.54423,-1.24551 -0.22806,-0.0481 -0.44629,-0.0879 -0.48494,-0.0885 -0.0594,-8.8e-4 -0.39715,0.94336 -0.35318,0.98734 0.008,0.008 0.10546,0.0225 0.21596,0.0316 0.18846,0.0156 0.20706,9e-5 0.30002,-0.24734 0.0545,-0.14518 0.1293,-0.27401 0.1662,-0.28631 0.0877,-0.0293 0.0838,0.0235 -0.0249,0.33567 -0.0497,0.14263 -0.0826,0.26571 -0.0732,0.2735 0.009,0.008 0.32367,0.10039 0.69835,0.20576 1.34456,0.37811 2.96894,1.11115 4.05773,1.83114 0.29322,0.19391 0.56224,0.3548 0.59782,0.35754 0.0356,0.003 0.13554,-0.17561 0.22214,-0.39633 z m 1.89636,-0.0282 c 0.023,-0.0879 -0.004,-0.17186 -0.0784,-0.24657 -0.11153,-0.11156 -0.11387,-0.11087 -0.15303,0.0452 -0.0239,0.0952 -0.0106,0.19365 0.0333,0.24657 0.1019,0.12278 0.1575,0.11009 0.19812,-0.0453 z m -8.81391,-0.41466 c 0.0889,-0.26879 0.17316,-0.52008 0.18725,-0.55842 0.0164,-0.0445 -0.0778,-0.0833 -0.26045,-0.10748 -0.15733,-0.0208 -0.35666,-0.0509 -0.44296,-0.067 -0.14937,-0.0277 -0.1643,-0.007 -0.31099,0.43348 -0.0847,0.25447 -0.15409,0.4936 -0.15409,0.53139 0,0.0533 0.41278,0.18547 0.78003,0.24977 0.0218,0.004 0.1123,-0.21299 0.20121,-0.48178 z m 9.29325,0.31704 c 0.0489,-0.0944 0.11707,-0.29789 0.15164,-0.45218 0.0609,-0.27179 0.0553,-0.29305 -0.18067,-0.68359 -1.14,-1.88675 -3.59265,-3.52466 -6.21734,-4.15203 -0.48313,-0.11547 -0.722,-0.13446 -1.68826,-0.13418 -1.01874,1.1e-4 -1.18192,0.0149 -1.72027,0.15409 -0.6572,0.16991 -1.33829,0.42399 -1.56922,0.58539 -0.0898,0.0627 -0.18858,0.22567 -0.24631,0.40619 -0.0936,0.29259 -0.093,0.30138 0.0197,0.30138 0.14653,0 0.33864,-0.40581 0.22528,-0.47587 -0.10704,-0.0662 -0.0191,-0.16265 0.28877,-0.31672 1.40894,-0.70519 3.70006,-0.74105 5.73615,-0.0898 0.76588,0.24498 2.38882,1.0756 2.38956,1.22298 7e-4,0.10703 -0.0638,0.0923 -0.30123,-0.0691 -0.35654,-0.24229 -1.47802,-0.78302 -2.01571,-0.97193 -0.63942,-0.22464 -1.5645,-0.4227 -2.05908,-0.44085 l -0.3779,-0.0139 -0.16695,0.53129 c -0.0918,0.29222 -0.16168,0.53514 -0.15524,0.53984 0.0346,0.0252 0.90108,0.20246 0.9898,0.20246 0.0716,0 0.11628,-0.0621 0.14158,-0.19703 0.0203,-0.10837 0.0784,-0.24832 0.12911,-0.31099 0.0861,-0.10652 0.0899,-0.0985 0.0573,0.12299 -0.0192,0.13032 -0.041,0.2865 -0.0485,0.34705 -0.0112,0.0905 0.10273,0.1495 0.63801,0.33076 1.32005,0.44699 2.61024,1.06282 3.61746,1.72665 l 0.60166,0.39655 0.19685,-0.47676 0.19684,-0.47676 -0.2183,-0.18329 c -0.23468,-0.19703 -0.2704,-0.27213 -0.12943,-0.27213 0.0929,0 1.27358,1.15196 1.27358,1.24264 0,0.0286 0.0375,0.0896 0.0834,0.13549 0.12218,0.12218 0.50898,0.73835 0.50898,0.81079 0,0.126 -0.11247,0.0562 -0.23887,-0.14836 -0.0716,-0.11575 -0.14602,-0.1945 -0.16551,-0.17499 -0.0195,0.0195 -0.0936,0.17293 -0.1646,0.34097 l -0.12916,0.30552 0.21579,0.25257 c 0.11868,0.13891 0.22177,0.25344 0.22908,0.25451 0.007,8.9e-4 0.0532,-0.0753 0.10205,-0.16972 z m -2.30711,-3.15344 c -0.25955,-0.19435 -0.3222,-0.28835 -0.19219,-0.28835 0.11533,0 0.51317,0.30838 0.51583,0.39985 0.004,0.10813 -0.0589,0.0868 -0.32364,-0.1115 z m -8.5527,2.9769 c 0.0401,-0.0403 0.28914,-0.7708 0.28914,-0.84803 0,-0.0566 -0.68918,-0.0559 -1.06091,8.8e-4 l -0.2612,0.04 -0.13864,0.41139 c -0.0763,0.22626 -0.13865,0.43259 -0.13865,0.45852 0,0.0537 1.25413,-0.006 1.31026,-0.063 z m 9.60831,-0.51073 c 0.0228,-0.0836 -0.0188,-0.15898 -0.14125,-0.25611 l -0.17352,-0.13763 -0.0619,0.16299 c -0.0549,0.14429 -0.043,0.17828 0.10348,0.29611 0.17389,0.13992 0.22037,0.1288 0.27327,-0.0654 z m -4.27132,-0.004 c 0.0862,-0.18922 0.0839,-0.19088 -0.6893,-0.47548 -0.55949,-0.20596 -0.59152,-0.21118 -0.66642,-0.10875 -0.0991,0.13549 -0.10128,0.26187 -0.005,0.26529 0.0407,0.002 0.32729,0.10625 0.6368,0.23291 0.30952,0.12665 0.58331,0.23211 0.60845,0.23432 0.0251,0.002 0.077,-0.0645 0.1151,-0.14829 z m 5.04557,-0.538 c 0.0314,-0.0989 -0.0271,-0.20885 -0.26006,-0.48871 -0.16529,-0.19862 -0.32005,-0.36112 -0.34391,-0.36112 -0.0484,0 -0.39711,0.88053 -0.36054,0.91057 0.0127,0.0105 0.18143,0.16067 0.37482,0.33372 l 0.35161,0.31466 0.0988,-0.29076 c 0.0543,-0.15993 0.11702,-0.34819 0.13927,-0.41836 z m -12.49676,-0.0543 c 0.0957,-0.0957 0.12388,-0.20309 0.0533,-0.20309 -0.0597,0 -0.25642,0.18878 -0.25642,0.24613 0,0.0798 0.10192,0.0581 0.2031,-0.043 z m 0.93056,-0.25471 c 0.0208,-0.0205 0.0562,-0.0983 0.0788,-0.17284 0.0376,-0.12439 0.0272,-0.13228 -0.12662,-0.0955 -0.25848,0.0619 -0.3573,0.12755 -0.39208,0.26055 -0.0292,0.1115 -0.0131,0.11873 0.18512,0.0835 0.11937,-0.0212 0.23404,-0.0553 0.25481,-0.0758 z m 1.85148,-0.21979 c 0.0743,-0.1937 0.0379,-0.26172 -0.14024,-0.26172 -0.13585,0 -0.19722,0.0406 -0.26808,0.1777 l -0.0919,0.17772 h 0.23213 c 0.15703,0 0.24377,-0.0303 0.26809,-0.0937 z m -1.68549,-0.59002 c 0.0753,-0.21314 0.12488,-0.39946 0.11029,-0.41405 -0.0694,-0.0694 -0.24792,0.15913 -0.3494,0.44729 -0.1361,0.38648 -0.13563,0.35429 -0.005,0.35429 0.079,0 0.14384,-0.1029 0.24433,-0.38753 z m 3.28036,-0.13079 c 0.0819,-0.2525 0.13115,-0.47675 0.10949,-0.49834 -0.0217,-0.0216 -0.21449,-0.0575 -0.42851,-0.0798 l -0.38912,-0.0406 -0.15849,0.46221 c -0.0872,0.25421 -0.13865,0.4817 -0.11439,0.50552 0.0387,0.038 0.16478,0.0559 0.70468,0.0997 0.10918,0.009 0.14882,-0.0555 0.27634,-0.44874 z m -1.94172,0.34112 0.35766,-7e-4 0.15824,-0.48267 0.15823,-0.48266 -0.54551,0.0379 c -0.78118,0.0542 -0.78692,0.057 -0.92076,0.44477 -0.0635,0.18403 -0.13617,0.38549 -0.16145,0.44769 -0.0429,0.10558 -0.0246,0.11053 0.27498,0.0746 0.17652,-0.0212 0.4819,-0.0388 0.67861,-0.0391 z m 5.94681,-0.54845 c 0.0281,-0.0733 0.0339,-0.15018 0.0129,-0.17083 -0.0445,-0.0437 -1.24412,-0.5252 -1.30858,-0.5252 -0.0433,0 -0.20079,0.30158 -0.16838,0.32246 0.065,0.0419 1.2764,0.49532 1.33696,0.50044 0.0418,0.004 0.099,-0.0536 0.12709,-0.12687 z m -7.57734,-0.69739 c 0.0463,-0.0866 0.044,-0.11712 -0.009,-0.11712 -0.10105,0 -0.28812,0.18039 -0.28812,0.27783 0,0.11248 0.21217,-0.003 0.29691,-0.16071 z m 0.93068,-0.27328 c 0.12519,-0.1712 0.0883,-0.21471 -0.14651,-0.17251 -0.21851,0.0393 -0.37023,0.16392 -0.37023,0.30414 0,0.10514 0.42226,-0.003 0.51674,-0.13163 z m 1.67294,-0.13613 c 0.10728,-0.20045 0.0733,-0.24898 -0.16082,-0.22961 -0.19285,0.016 -0.22461,0.0399 -0.24088,0.18129 -0.0168,0.14601 -1e-4,0.1629 0.16082,0.1629 0.1169,0 0.20096,-0.04 0.24088,-0.11458 z m -0.21072,-0.40938 0.2907,-0.0389 0.13835,-0.41012 c 0.0761,-0.22556 0.12971,-0.41874 0.11917,-0.42928 -0.0321,-0.0321 -0.70233,0.0992 -1.00666,0.19726 -0.25077,0.0808 -0.30029,0.125 -0.39985,0.35729 -0.0625,0.14581 -0.11364,0.29841 -0.11364,0.33912 0,0.0759 0.32707,0.0708 0.97193,-0.0155 z m 1.83924,-0.36765 c 0.0829,-0.26233 0.15068,-0.5034 0.15068,-0.53573 0,-0.035 -0.17142,-0.0517 -0.42418,-0.0414 l -0.42418,0.0174 -0.13857,0.41138 c -0.0762,0.22626 -0.13858,0.44457 -0.13858,0.48513 0,0.0694 0.18007,0.10637 0.63422,0.13017 0.18748,0.01 0.1919,0.004 0.34061,-0.46699 z"
         id="path1529"
         inkscape:connector-curvature="0" />
      <circle
         r="17.773424"
         cy="154.69812"
         cx="150.61502"
         id="path1493"
         style="fill:none;fill-opacity:1;stroke:#4a4949;stroke-width:0.26458332;stroke-opacity:1" />
      <circle
         style="fill:none;fill-opacity:1;stroke:#4a4949;stroke-width:0.28413135;stroke-opacity:1"
         id="circle1495"
         cx="150.61502"
         cy="154.69812"
         r="19.086567" />
    </g>
  </g>
</svg>
