<?xml version="1.0" encoding="UTF-8" standalone="no"?>
<!-- Created with Inkscape (http://www.inkscape.org/) -->

<svg
   xmlns:dc="http://purl.org/dc/elements/1.1/"
   xmlns:cc="http://creativecommons.org/ns#"
   xmlns:rdf="http://www.w3.org/1999/02/22-rdf-syntax-ns#"
   xmlns:svg="http://www.w3.org/2000/svg"
   xmlns="http://www.w3.org/2000/svg"
   xmlns:sodipodi="http://sodipodi.sourceforge.net/DTD/sodipodi-0.dtd"
   xmlns:inkscape="http://www.inkscape.org/namespaces/inkscape"
   width="384.24707"
   height="121.53883"
   viewBox="0 0 101.66537 32.15715"
   version="1.1"
   id="svg1146"
   inkscape:version="0.92.2 5c3e80d, 2017-08-06"
   sodipodi:docname="logo.svg">
  <defs
     id="defs1140" />
  <sodipodi:namedview
     id="base"
     pagecolor="#ffffff"
     bordercolor="#666666"
     borderopacity="1.0"
     inkscape:pageopacity="0.0"
     inkscape:pageshadow="2"
     inkscape:zoom="0.35"
     inkscape:cx="187.83784"
     inkscape:cy="-202.08773"
     inkscape:document-units="px"
     inkscape:current-layer="layer1"
     showgrid="false"
     fit-margin-top="0"
     fit-margin-left="0"
     fit-margin-right="0"
     fit-margin-bottom="0"
     inkscape:window-width="1920"
     inkscape:window-height="1016"
     inkscape:window-x="0"
     inkscape:window-y="27"
     inkscape:window-maximized="1"
     units="px" />
  <metadata
     id="metadata1143">
    <rdf:RDF>
      <cc:Work
         rdf:about="">
        <dc:format>image/svg+xml</dc:format>
        <dc:type
           rdf:resource="http://purl.org/dc/dcmitype/StillImage" />
        <dc:title></dc:title>
      </cc:Work>
    </rdf:RDF>
  </metadata>
  <g
     inkscape:label="Calque 1"
     inkscape:groupmode="layer"
     id="layer1"
     transform="translate(-42.905404,-63.207139)">
    <g
       transform="matrix(0.26458333,0,0,0.26458333,-98.587101,32.870376)"
       style="display:inline"
       id="g1104">
      <path
         inkscape:connector-curvature="0"
         id="path1529"
         d="m 729.7418,235.8468 c -0.42988,-0.18717 -1.01593,-0.6382 -1.30232,-1.00229 l -0.52072,-0.66199 -1.48475,0.69549 c -1.30668,0.61209 -1.77343,0.69324 -3.89175,0.67648 -3.79199,-0.03 -10.36144,-1.2163 -12.64402,-2.28324 -2.58367,-1.20767 -4.92209,-3.59314 -6.26427,-6.39033 -0.53968,-1.1247 -1.13515,-2.05183 -1.32329,-2.06026 -0.6245,-0.028 -2.0154,-1.67747 -2.2973,-2.72433 -0.20956,-0.77824 -0.46394,-1.1086 -1.03617,-1.34563 -0.41714,-0.17278 -0.75844,-0.44995 -0.75844,-0.61593 0,-0.30155 1.22574,-4.01378 1.72059,-5.21089 0.144,-0.34838 0.51313,-1.289 0.82027,-2.09027 0.30712,-0.80131 0.66593,-1.45689 0.79732,-1.45689 0.13138,0 0.17058,-0.11055 0.087,-0.24568 -0.0836,-0.1351 0.30184,-1.41779 0.85634,-2.8504 0.55449,-1.43261 1.43473,-3.71965 1.95611,-5.08236 l 0.94793,-2.47762 1.28455,0.0581 c 0.84721,0.0382 1.57895,-0.0981 2.14924,-0.40062 0.57064,-0.30264 1.18054,-0.41623 1.79345,-0.33401 2.34296,0.31425 5.46431,-2.52115 7.50486,-6.81733 0.47223,-0.99424 0.85859,-1.91644 0.85859,-2.04935 0,-0.13285 1.36819,-3.87002 3.04044,-8.30469 1.67223,-4.43468 3.03173,-8.18715 3.02108,-8.33882 -0.0107,-0.15167 -1.23631,-0.87296 -2.72372,-1.60287 -4.46968,-2.19339 -9.11865,-6.00383 -9.58319,-7.85472 -0.084,-0.33435 0.10174,-1.48227 0.413,-2.55375 1.93892,-6.67413 2.54431,-8.62711 4.3498,-14.03253 1.10321,-3.3029 2.39904,-7.06283 2.87959,-8.35541 l 0.87375,-2.35015 -0.84575,-0.89256 c -1.14503,-1.20842 -1.25735,-1.65808 -0.75449,-3.02064 0.59662,-1.61666 0.76575,-1.78889 2.55522,-2.6024 2.07296,-0.94239 2.27749,-1.5667 0.98277,-2.99981 -1.03694,-1.14775 -1.08212,-1.4262 -0.49171,-3.02947 0.57015,-1.54823 0.90069,-1.8884 2.50917,-2.58224 1.35053,-0.58258 1.38578,-0.62487 1.93957,-2.32729 0.65295,-2.00726 1.01484,-2.33321 3.85192,-3.46922 9.14979,-3.66375 19.93063,-2.73389 30.41485,2.62334 2.67609,1.36743 5.74488,3.34208 7.85348,5.0534 3.24835,2.63634 7.34335,7.3202 8.67841,9.92632 0.51138,0.99825 0.51138,0.99831 0.009,2.78705 -0.27651,0.98385 -0.61263,1.99765 -0.74696,2.25289 -0.18355,0.34881 -0.0916,0.69492 0.37032,1.39353 0.33799,0.51119 0.76932,1.35802 0.95849,1.88182 0.30408,0.84197 0.28895,1.11417 -0.13045,2.34803 -0.26093,0.76762 -0.64351,1.53622 -0.85019,1.70802 -0.2067,0.17178 -1.06218,0.36935 -1.90109,0.43903 -1.37364,0.11402 -1.54733,0.19322 -1.74713,0.79587 -0.17971,0.54211 -0.0753,0.9003 0.5502,1.88653 0.90198,1.42229 0.97014,2.38753 0.28193,3.99307 -0.58813,1.37203 -1.22533,1.76153 -2.6911,1.64496 l -1.10021,-0.0874 -1.93775,5.19488 c -1.99503,5.34842 -4.5871,12.52377 -6.45306,17.86335 -1.14716,3.28267 -1.66031,3.98563 -3.22717,4.42076 -2.17356,0.60364 -9.28531,-0.004 -10.67017,-0.91085 -0.33186,-0.21744 -0.52562,-0.26951 -0.43057,-0.11575 0.22243,0.35989 0.42411,0.39653 -2.64413,-0.48046 -1.46263,-0.41806 -2.67732,-0.76011 -2.69932,-0.76011 -0.12871,0 -6.341,13.45949 -7.21365,15.62901 -1.38694,3.44807 -1.18752,7.54375 0.5573,11.44597 l 0.82879,1.85356 1.09012,-0.16349 c 1.67074,-0.25054 3.25422,0.54093 3.8915,1.94509 0.27153,0.59825 0.4962,1.28536 0.49925,1.52688 0.004,0.26883 0.48994,0.68458 1.25448,1.072 0.68691,0.34808 1.31337,0.73717 1.39216,0.86465 0.0788,0.12751 -0.27096,1.35531 -0.77719,2.72855 -0.50624,1.37322 -1.06729,2.89582 -1.24677,3.38355 -2.01332,5.47062 -5.23282,13.83838 -5.38158,13.98711 -0.10414,0.10428 -0.91549,-0.0303 -1.80289,-0.29901 l -1.6134,-0.48848 -0.51282,0.65191 c -0.56846,0.72269 -1.8737,1.356 -2.76327,1.34074 -0.31802,-0.007 -0.92993,-0.16306 -1.35981,-0.35023 z m 2.82346,-0.7752 c 0.42571,-0.32479 0.44074,-0.40943 0.11175,-0.62955 -0.49455,-0.33091 -1.81194,-0.33127 -2.68139,-4.4e-4 -0.65959,0.25078 -0.66796,0.2761 -0.20652,0.62537 0.62972,0.47666 2.15429,0.47933 2.77613,0.005 z m -8.06268,-0.33832 c 0.17613,-0.11189 -0.93371,-0.34591 -2.53371,-0.53433 -3.16191,-0.3723 -3.84043,-0.37969 -4.43277,-0.0482 -0.29209,0.16346 0.0482,0.29571 1.22397,0.47561 2.03096,0.31075 5.32502,0.37209 5.74251,0.10694 z m 14.80177,-5.31443 c 0.92761,-2.46778 1.66872,-4.49998 1.64689,-4.516 -0.33294,-0.24457 -8.14351,-3.60649 -8.2143,-3.5357 -0.0961,0.0961 -3.86044,10.24821 -3.86044,10.41143 0,0.0742 2.12968,0.74693 6.5876,2.08075 0.9701,0.29026 1.75103,0.40104 1.90029,0.26957 0.13933,-0.1227 1.01232,-2.24229 1.93996,-4.71005 z m -3.99595,3.41167 c -0.64083,-0.24154 -0.75393,-0.39265 -0.60178,-0.80417 0.37059,-1.00242 -0.35456,-1.25037 -0.79969,-0.27343 -0.15371,0.33735 -0.42511,0.55749 -0.60311,0.48919 -0.24548,-0.0943 -0.17667,-0.4859 0.28491,-1.62182 0.73414,-1.80676 0.7315,-1.76107 0.10174,-1.76107 -0.27872,0 -0.50675,0.12137 -0.50675,0.26974 0,0.14837 -0.2447,0.83859 -0.54379,1.53384 -0.84262,1.95873 -1.17853,1.1597 -0.40337,-0.95949 1.35161,-3.69508 1.50299,-4.17326 1.365,-4.31126 -0.4288,-0.42879 -0.94088,0.42803 -1.83042,3.06262 -0.56059,1.6603 -1.13035,2.93826 -1.30997,2.93826 -0.17483,0 -0.31788,-0.10361 -0.31788,-0.23011 0,-0.18511 1.54153,-4.63845 2.82817,-8.17038 l 0.24507,-0.6727 1.82054,0.83372 c 1.00128,0.45856 2.47611,1.13028 3.27739,1.49272 0.80128,0.36245 1.45688,0.77159 1.45688,0.90921 0,0.13761 -0.32535,1.0798 -0.723,2.09373 -0.39765,1.01395 -1.0347,2.67015 -1.41568,3.68047 -0.73967,1.96153 -0.87332,2.04783 -2.32432,1.50093 z m -16.75773,0.29703 c 0.87151,-0.30014 2.32569,-0.99801 3.23148,-1.55081 l 1.6469,-1.0051 2.2599,0.54509 c 1.24295,0.29979 2.35224,0.45273 2.4651,0.33987 0.18495,-0.18493 3.62712,-9.34979 3.81258,-10.15106 0.0507,-0.21906 -1.08792,-0.75973 -3.33494,-1.58355 -1.87658,-0.688 -3.48031,-1.25092 -3.56389,-1.25092 -0.0836,0 -0.40441,0.60907 -0.71294,1.35348 -0.68615,1.65541 -2.93204,4.42831 -4.54515,5.61169 -2.58046,1.89301 -5.9982,2.3835 -8.30737,1.19223 -1.12114,-0.57838 -2.55149,-2.01114 -3.355,-3.36066 -1.21809,-2.04583 -1.63963,-6.07579 -0.93902,-8.97733 0.2019,-0.83612 0.37114,-1.58744 0.3761,-1.66959 0.012,-0.19994 -1.18796,-0.73743 -1.6464,-0.73743 -0.20061,0 -0.5349,0.40726 -0.74287,0.90503 -0.52,1.24452 -0.96951,0.88859 -0.51274,-0.40599 l 0.35566,-1.00804 -0.83468,-0.34876 c -1.73655,-0.72557 -1.8451,-0.72415 -2.13478,0.0278 -0.96644,2.50862 -3.08973,8.45043 -3.08973,8.64626 0,0.12991 0.74472,0.61919 1.65495,1.0873 1.20297,0.61866 1.69699,1.0241 1.80884,1.48453 0.90741,3.73465 3.68269,7.90301 6.48378,9.73837 2.64624,1.73387 6.52633,2.18443 9.62422,1.11757 z m 1.46316,-1.67128 c 0.008,-0.27101 3.03956,-2.17036 3.20332,-2.00661 0.23041,0.23041 -0.12043,0.59709 -1.35209,1.41287 -1.14347,0.7574 -1.86214,0.9879 -1.85123,0.59374 z m -11.47069,-0.21157 c -0.20555,-0.20557 0.31445,-1.62537 0.59531,-1.62537 0.26375,0 0.28623,0.39251 0.0689,1.2035 -0.15129,0.56454 -0.3777,0.70835 -0.66418,0.42187 z m 18.7006,-0.58899 c -0.19881,-0.32167 0.79258,-2.55659 1.13408,-2.55659 0.29456,0 0.1895,0.50867 -0.40553,1.96361 -0.35249,0.86188 -0.49211,0.97553 -0.72855,0.59298 z m -20.91715,-1.6799 c 0,-0.5739 0.98042,-2.39691 1.28908,-2.39691 0.27988,0 0.169,0.49392 -0.43586,1.94154 -0.36627,0.87663 -0.85322,1.1365 -0.85322,0.45537 z m -1.5202,-2.61925 c 0,-0.52209 0.64338,-1.19035 0.83448,-0.86678 0.17633,0.2986 -0.26916,1.34249 -0.57296,1.34249 -0.14384,0 -0.26152,-0.21408 -0.26152,-0.47571 z m -0.95522,-2.12134 c 0.062,-0.17418 0.38019,-1.08631 0.70739,-2.02695 0.35219,-1.01247 0.73947,-1.71024 0.94921,-1.71024 0.19488,0 0.29598,0.14251 0.22465,0.31671 -0.0713,0.17418 -0.38829,1.08633 -0.70439,2.02696 -0.34654,1.03115 -0.71663,1.71024 -0.93206,1.71024 -0.1965,0 -0.30667,-0.14252 -0.2448,-0.31672 z m -0.81837,-2.56686 c 0,-0.14665 1.28418,-3.52711 1.42875,-3.76104 0.0696,-0.11255 0.22685,-0.14258 0.34953,-0.0667 0.32377,0.20009 -1.04757,3.92432 -1.44503,3.92432 -0.18329,0 -0.33325,-0.0434 -0.33325,-0.0965 z m -1.18799,-2.6272 c 0.21573,-1.05697 1.66558,-4.11728 1.95061,-4.11728 0.35597,0 0.35002,0.0223 -0.67946,2.53939 -0.89619,2.1912 -1.56604,3.02269 -1.27115,1.57789 z m -1.85246,0.16897 c 0,-0.52087 2.60849,-6.81993 2.82419,-6.81993 0.46907,0 0.20779,0.83661 -1.721,5.51078 -0.58849,1.42612 -1.10319,2.0369 -1.10319,1.30915 z m 16.29296,7.22597 c 0.30142,-0.11562 0.3217,-0.30705 0.10681,-1.0073 -0.23087,-0.75225 -0.4328,-0.91246 -1.55491,-1.23371 -0.70926,-0.20305 -2.35265,-0.67245 -3.65197,-1.04313 -1.29933,-0.37067 -2.42515,-0.61123 -2.50181,-0.53456 -0.0766,0.0766 0.25131,0.68584 0.72887,1.35369 1.21788,1.70321 2.90891,2.5942 4.93808,2.60189 0.85955,0.004 1.73028,-0.0583 1.93494,-0.13688 z m 4.6381,-2.99848 c 2.96147,-2.95782 4.43182,-6.54589 4.47517,-10.92074 0.026,-2.63161 -0.55021,-5.19664 -1.16645,-5.1917 -0.16298,4.4e-4 -0.88053,0.33744 -1.59455,0.74697 -2.60386,1.49345 -5.10106,5.13993 -6.08039,8.8787 -0.74049,2.82696 -0.46844,6.93986 0.56579,8.55384 0.3561,0.5557 0.39115,0.56023 1.18289,0.15252 0.44873,-0.23109 1.62663,-1.22993 2.61754,-2.21959 z m 21.87174,-3.34562 c 0.82162,-2.21537 1.56829,-4.21589 1.65928,-4.4456 0.13258,-0.33479 -0.62074,-0.83015 -3.79577,-2.49584 -2.17866,-1.14298 -4.03919,-2.00101 -4.13448,-1.90671 -0.41841,0.41399 -3.51067,9.14911 -3.31439,9.36259 0.23737,0.25816 7.91331,3.68079 8.02334,3.57751 0.0375,-0.0353 0.74044,-1.87659 1.56202,-4.09195 z m -5.60452,1.58606 c -1.62844,-0.7187 -3.01647,-1.36456 -3.08451,-1.43525 -0.19478,-0.20239 2.51733,-7.63115 2.77462,-7.59996 0.41557,0.0503 0.12017,1.34765 -1.00982,4.43468 -0.66452,1.81542 -1.02172,3.13742 -0.88656,3.28115 0.38601,0.41043 0.66354,-0.11042 1.86848,-3.50718 1.31524,-3.70755 1.37265,-3.82822 1.67662,-3.52426 0.12591,0.1259 0.009,0.77725 -0.26959,1.51244 -0.26987,0.71024 -0.42024,1.36181 -0.33415,1.4479 0.39523,0.39523 0.74811,0.0585 1.1632,-1.11032 0.49308,-1.38833 1.08408,-1.75842 0.80916,-0.50673 -0.13151,0.59908 -0.0805,0.7601 0.24118,0.7601 0.22448,0 0.47378,-0.17101 0.55398,-0.38005 0.19576,-0.51012 0.67876,-0.4786 1.85412,0.12096 l 0.98217,0.50107 -1.37233,3.56803 c -0.75477,1.96241 -1.37233,3.61819 -1.37233,3.67952 0,0.26613 -0.81436,-0.0154 -3.59424,-1.24216 z m -21.68164,0.64159 c -0.10054,-0.68524 -0.24792,-0.75285 -3.9065,-1.79266 -2.0911,-0.5943 -3.85103,-1.03152 -3.91098,-0.97162 -0.0599,0.0599 -0.008,0.38206 0.11522,0.71584 0.1889,0.51143 0.75764,0.77415 3.61595,1.67036 4.14006,1.29811 4.2225,1.30574 4.08634,0.37808 z m 17.51548,-3.78524 c 0.3548,-0.94063 1.15011,-3.07844 1.76734,-4.75067 l 1.12229,-3.04045 -1.08648,-0.63485 c -3.70192,-2.16322 -6.07256,-5.22817 -6.83043,-8.83091 -0.87073,-4.1393 -0.53112,-5.65209 3.2216,-14.351 1.68328,-3.90188 3.42711,-7.94946 3.87517,-8.99461 0.44807,-1.04515 1.01166,-2.35635 1.25246,-2.91374 0.24079,-0.55743 0.35736,-0.93554 0.25907,-0.84029 -0.0983,0.0953 -0.65186,-0.17019 -1.23014,-0.58993 l -1.0514,-0.76316 -0.16524,1.60343 c -0.1651,1.602 -0.6181,2.77108 -5.33374,13.76516 -0.89658,2.0903 -1.95792,4.59866 -2.3585,5.57414 -1.33431,3.24917 -3.13763,4.26283 -4.91825,2.76454 -0.69703,-0.5865 -0.77955,-0.80393 -0.77955,-2.05377 0,-1.23025 0.4711,-2.52606 3.92979,-10.80903 4.52315,-10.8322 4.60454,-11.00056 5.6735,-11.735 0.44044,-0.30261 0.71171,-0.60521 0.60282,-0.67243 -0.48602,-0.30004 -3.24689,-0.89558 -3.39532,-0.7324 -0.23147,0.25447 -5.91005,14.9894 -7.14913,18.55074 -1.78051,5.11757 -2.61519,6.69458 -4.75267,8.97955 -2.0816,2.22525 -4.28689,3.22612 -7.53663,3.4205 l -2.36961,0.14175 -0.56658,1.39353 c -0.31161,0.76645 -0.73975,1.7926 -0.95143,2.28033 -0.81338,1.87425 -1.47377,3.69907 -1.46886,4.05882 0.004,0.23144 0.94953,0.77903 2.47036,1.42939 l 2.46522,1.05422 1.13591,-2.19438 c 2.69251,-5.2015 7.40226,-7.9589 11.5536,-6.76423 1.98319,0.57072 4.02423,2.58678 4.88296,4.82321 0.82365,2.14503 1.00253,5.5116 0.42969,8.08643 -0.24014,1.07936 -0.39829,1.99839 -0.35146,2.04231 0.16337,0.15314 6.42176,2.39313 6.71397,2.40305 0.16201,0.007 0.58487,-0.75961 0.93967,-1.70025 z m -0.34743,-3.55755 c 0,-0.28518 0.53799,-1.79901 1.13372,-3.19009 0.2571,-0.60036 0.51219,-0.89245 0.65482,-0.7498 0.27873,0.27871 -1.06468,3.94124 -1.49868,4.0859 -0.15942,0.0531 -0.28986,-0.012 -0.28986,-0.14601 z m -25.59034,-4.74844 c 0,-0.64108 0.71357,-2.1455 1.01762,-2.1455 0.31404,0 0.15071,0.70957 -0.4228,1.83693 -0.39789,0.78211 -0.59482,0.88428 -0.59482,0.30857 z m -2.95967,-2.33554 c 0.22635,-0.71765 2.21334,-5.48232 2.3384,-5.6074 0.063,-0.063 0.18814,-0.041 0.27807,0.049 0.27735,0.27735 -2.01497,6.00181 -2.40338,6.00181 -0.22052,0 -0.30046,-0.16639 -0.21309,-0.44341 z m 2.7063,-2.75747 c 0,-0.32982 0.82712,-2.47328 1.08582,-2.81386 0.56669,-0.74606 0.60282,0.0566 0.0624,1.38509 -0.50945,1.25222 -1.14816,2.04701 -1.14816,1.42877 z m 2.22019,-0.99764 c -0.0796,-0.0796 0.0148,-0.45008 0.20959,-0.82345 0.1948,-0.37336 0.35487,-0.82137 0.35574,-0.99557 4.4e-4,-0.17419 0.17258,-0.31672 0.38161,-0.31672 0.47121,0 0.47085,0.0162 -0.0275,1.26173 -0.39173,0.97898 -0.60844,1.18501 -0.91942,0.87401 z m 17.96071,-1.55735 c -0.49338,-0.95665 -0.63937,-2.90718 -0.22803,-3.04679 0.20622,-0.0701 0.31672,0.15394 0.31672,0.64184 0,0.41217 0.1649,1.21683 0.36648,1.78815 0.42561,1.20628 0.0861,1.66632 -0.45517,0.6168 z m -11.49557,16.58741 c 0.0705,-0.45289 0.055,-0.89958 -0.0346,-0.99262 -0.1579,-0.16404 -7.517,-2.99795 -7.78504,-2.99795 -0.0733,0 -0.0985,0.53263 -0.0561,1.1836 l 0.0772,1.1836 3.54719,1.20346 c 1.95095,0.6619 3.67676,1.21243 3.83512,1.22342 0.15839,0.0107 0.34569,-0.3506 0.41623,-0.80351 z m 1.95619,-6.09701 c 0.6271,-1.28012 1.1747,-2.40259 1.21689,-2.49435 0.0422,-0.0917 -0.52788,-0.39398 -1.26684,-0.67164 -0.73896,-0.27766 -2.39662,-0.96925 -3.68366,-1.53686 -1.28704,-0.5676 -2.49545,-0.97239 -2.68535,-0.89952 -0.18991,0.0729 -0.8826,1.15158 -1.53932,2.39714 l -1.19404,2.26463 0.83896,0.38477 c 2.28611,1.04843 6.69624,2.88744 6.91984,2.88553 0.13936,-4.4e-4 0.76645,-1.04956 1.39352,-2.3297 z m 24.3235,-0.43984 c 0,-0.62259 -0.82506,-1.78159 -1.52649,-2.14431 -0.73833,-0.3818 -0.76584,-0.37428 -1.06956,0.29231 -0.19456,0.42699 -0.21762,0.71608 -0.0614,0.76901 0.13771,0.0467 0.70645,0.36571 1.26388,0.70899 1.12689,0.69399 1.39351,0.76555 1.39351,0.374 z m -6.59107,-5.24482 c -0.0179,-0.98379 -0.47493,-1.40557 -2.96227,-2.73384 -1.46151,-0.78046 -2.71694,-1.35936 -2.78983,-1.28646 -0.0729,0.0729 0.0833,0.50846 0.34701,0.96791 0.34747,0.60532 1.10595,1.16432 2.75401,2.02966 2.33647,1.22682 2.65705,1.3505 2.65108,1.02273 z m -0.99131,-4.16304 c -0.14479,-1.08004 -0.15635,-1.09048 -2.80577,-2.53643 -1.46322,-0.79857 -2.74591,-1.45638 -2.85041,-1.46183 -0.23612,-0.012 -0.21784,1.22273 0.0272,1.84467 0.17167,0.43553 5.31886,3.46188 5.62888,3.30954 0.08,-0.0394 0.08,-0.55948 0,-1.15595 z m 0.0625,-4.1424 c 0.12203,-1.30691 0.51083,-2.45375 1.78504,-5.26558 2.46761,-5.4453 2.90533,-6.39604 4.37412,-9.50069 l 1.35564,-2.86546 -0.50935,-0.99842 c -0.33641,-0.65942 -0.6813,-0.99843 -1.01578,-0.99843 -0.4075,0 -0.4767,-0.11829 -0.35438,-0.60579 0.2848,-1.13469 -0.39098,-0.98962 -0.91569,0.19659 -0.49732,1.12423 -0.90744,1.59997 -1.16086,1.34656 -0.0698,-0.0698 0.17243,-0.7175 0.53824,-1.43937 0.74721,-1.47458 0.7912,-2.7377 0.0465,-1.33492 -0.43817,0.82535 -0.93873,1.10049 -0.92189,0.50674 0.005,-0.17419 0.17191,-0.60175 0.37106,-0.95014 0.42985,-0.75194 0.48563,-1.34427 0.11496,-1.2207 -0.14581,0.0486 -1.05815,1.90537 -2.02742,4.12616 -0.96926,2.22078 -1.8742,4.14971 -2.01099,4.28648 -0.76224,0.76225 -0.36525,-0.54821 1.35881,-4.48531 1.7812,-4.06761 2.42175,-5.79966 1.55609,-4.20768 -0.50736,0.93306 -6.21483,14.16408 -6.20068,14.37438 0.007,0.0964 0.29372,-0.36638 0.6383,-1.02829 0.34456,-0.66194 0.73831,-1.20351 0.87498,-1.20351 0.39194,0 0.29726,0.42741 -0.39898,1.80135 -0.50221,0.99107 -0.72167,1.21621 -0.97813,1.00338 -0.25789,-0.21405 -0.47148,0.0465 -0.97105,1.18416 -0.9023,2.05494 -1.42029,3.81227 -1.49945,5.08717 l -0.068,1.09492 2.76974,1.48355 c 1.52333,0.81596 2.8425,1.43858 2.93145,1.3836 0.0889,-0.055 0.23194,-0.85181 0.31775,-1.77075 z m 1.43899,-16.82079 c 0,-0.51978 0.32856,-1.0342 0.66054,-1.0342 0.42192,0 0.43703,0.12951 0.0907,0.77676 -0.27024,0.50495 -0.7512,0.66977 -0.7512,0.25744 z m -11.64804,13.98958 c 0.8513,-0.58674 1.15646,-1.01907 1.66246,-2.3553 0.37833,-0.99905 5.07123,-12.04768 6.13429,-14.44207 0.21655,-0.48774 0.42377,-1.00082 0.46053,-1.14016 0.0367,-0.13936 0.36562,-0.97206 0.73083,-1.85044 0.87494,-2.1043 0.78891,-2.93632 -0.31456,-3.04279 -1.01758,-0.0981 -1.82214,0.6875 -2.48085,2.42263 -0.25134,0.66205 -2.03413,5.00518 -3.96174,9.65137 -3.41283,8.22603 -3.82491,9.55266 -3.35097,10.78775 0.19442,0.50665 0.34604,0.50246 1.12001,-0.0308 z m 35.55479,-14.04821 c 1.00793,-0.52041 1.43022,-1.05046 1.43022,-1.79522 0,-2.6579 -11.85211,-9.91987 -21.60288,-13.23639 -9.02414,-3.06935 -20.68496,-4.74095 -24.71778,-3.54334 -1.20059,0.35655 -1.31285,0.45442 -1.31285,1.14486 0,1.50898 4.60463,5.29426 9.50137,7.8107 1.11483,0.57291 2.1723,1.04189 2.34995,1.04219 0.28124,4.4e-4 0.81718,-0.96834 0.81718,-1.47722 0,-0.0979 -0.69695,-0.45474 -1.54877,-0.79309 -1.82241,-0.72385 -4.92747,-2.59059 -5.60114,-3.36735 -0.26013,-0.29994 -0.43957,-0.77876 -0.39873,-1.06408 0.16854,-1.17775 5.88822,-0.68273 12.99609,1.12478 9.10169,2.31453 21.4435,7.8341 22.67898,10.14265 0.20748,0.38769 0.1492,0.60402 -0.27782,1.03103 l -0.54038,0.54038 1.48472,1.51333 1.48473,1.51332 1.35682,-0.15298 c 0.74627,-0.0841 1.60139,-0.27925 1.90029,-0.43357 z m -11.58084,-1.48398 c -0.86713,-1.03052 -2.20219,-2.13912 -3.10904,-2.58167 l -0.79125,-0.38612 -0.51523,1.11996 -0.51524,1.11996 0.54636,0.20745 c 0.30051,0.11416 1.28748,0.40923 2.19328,0.65583 0.90579,0.24658 1.74631,0.5365 1.86781,0.64424 0.12149,0.10775 0.37794,0.13563 0.56986,0.062 0.26897,-0.10321 0.21244,-0.29618 -0.24655,-0.84165 z m 5.40996,-2.06979 c 0,-0.13138 -0.0928,-0.18144 -0.20616,-0.11135 -0.39201,0.24226 -3.825,-0.37564 -6.16796,-1.11019 -1.73895,-0.54519 -2.40031,-0.65881 -2.53799,-0.43604 -0.2495,0.40367 0.038,0.52738 2.70456,1.16343 3.91921,0.93487 6.20755,1.11704 6.20755,0.49415 z m 9.24688,-2.48919 c 1.53806,-4.35519 4.77856,-13.22357 6.6993,-18.33424 l 1.79609,-4.77897 -0.51299,-0.83002 c -0.68931,-1.11533 -1.1704,-1.50817 -1.32688,-1.08349 -0.0656,0.17774 -0.92904,2.48948 -1.91898,5.13719 -4.85605,12.98809 -7.14149,19.23181 -7.13213,19.48469 0.007,0.15298 0.34772,0.6729 0.7601,1.15538 1.34502,1.57355 0.74307,1.83128 -0.65718,0.28139 -1.03323,-1.14367 -4.33697,-3.69091 -6.34415,-4.89145 -1.30872,-0.7828 -1.69323,-1.20788 -1.09254,-1.20788 0.15269,0 0.61358,0.19845 1.02421,0.44101 0.90222,0.53296 0.9172,0.51538 1.88281,-2.21032 0.37107,-1.0475 2.09955,-5.7811 3.84105,-10.51912 1.74149,-4.73801 3.31047,-9.07064 3.48663,-9.62805 0.17615,-0.5574 0.46614,-1.35552 0.64442,-1.77358 0.67241,-1.57685 0.60912,-1.74888 -1.08107,-2.93798 -5.31234,-3.73738 -12.09545,-6.8185 -19.13049,-8.68969 -1.2873,-0.34239 -2.38377,-0.54562 -2.43662,-0.45162 -0.0529,0.094 -0.29101,0.76815 -0.52925,1.49812 -0.40328,1.23565 -0.78256,1.7896 -1.04535,1.52679 -0.0607,-0.0607 0.11896,-0.77736 0.39938,-1.59244 0.54786,-1.59238 0.44335,-1.8832 -0.6796,-1.8911 -0.46698,-0.004 -0.65549,0.31513 -1.23524,2.08642 -0.37629,1.14967 -0.69838,2.23814 -0.71576,2.41883 -0.0174,0.1807 0.7095,0.64598 1.6153,1.03394 1.06116,0.45452 1.61973,0.83329 1.57051,1.06499 -0.13569,0.63883 -6.17547,18.13725 -6.36752,18.44801 -0.12697,0.20537 -0.37963,0.22843 -0.79815,0.0728 -0.33681,-0.12523 -1.01315,-0.30083 -1.50294,-0.39017 -0.87913,-0.16037 -0.89622,-0.14655 -1.3302,1.07536 -0.65985,1.85781 -0.63033,1.91653 1.14392,2.27637 0.87096,0.17664 1.82447,0.37891 2.11894,0.44952 0.47785,0.11455 0.62521,-0.13232 1.37154,-2.29743 0.45988,-1.33418 0.91256,-2.42577 1.00595,-2.42577 0.43455,0 0.36992,0.41954 -0.409,2.6552 l -0.83563,2.39841 0.93946,0.24622 c 2.38202,0.62429 2.21462,0.65511 2.5516,-0.46962 0.17763,-0.59289 0.46539,-1.02967 0.67837,-1.02967 0.45562,0 0.45585,-0.0143 -0.0183,1.12038 -0.45263,1.08326 -0.37189,1.29721 0.57574,1.5259 2.19179,0.52896 8.42694,3.09533 8.42694,3.46852 0,0.39247 -0.68061,0.23413 -2.44672,-0.56925 -4.84972,-2.20606 -12.88411,-4.46109 -19.34307,-5.42907 -3.10464,-0.46528 -9.2598,-0.62846 -11.14827,-0.29553 l -1.14016,0.201 0.67013,-0.58107 c 0.52365,-0.45407 0.97349,-1.55015 2.05811,-5.01502 2.09286,-6.68565 4.32874,-13.62781 5.73265,-17.79922 0.87597,-2.6028 1.15729,-3.73721 0.92678,-3.73721 -0.18205,0 -0.46347,0.15966 -0.62543,0.35476 -0.71542,0.86205 -6.40184,17.79493 -8.71758,25.95907 l -0.38487,1.35689 1.43695,-0.21673 c 4.12188,-0.62169 11.54639,0.22506 19.35575,2.2075 9.33135,2.3688 21.17997,8.30354 25.66079,12.85296 0.69677,0.70743 1.34023,1.20799 1.42994,1.11235 0.0897,-0.0956 0.58587,-1.37106 1.10263,-2.83426 z m -12.35065,-5.97243 c -0.67297,-0.3651 -0.94189,-0.86855 -0.46392,-0.86855 0.12804,0 0.5834,0.19952 1.01186,0.44339 1.3346,0.7596 0.81364,1.16383 -0.54794,0.42516 z m -12.69799,-15.76263 c -0.20287,-0.32826 5.78168,-17.36433 6.14209,-17.48446 0.52639,-0.17548 0.74477,-0.86408 -4.32241,13.62918 -1.31594,3.76386 -1.55854,4.27783 -1.81968,3.85528 z m 5.22759,-6.579 c 0.15886,-0.88641 3.22911,-9.23208 3.51249,-9.54782 0.11669,-0.13004 0.28642,-0.16231 0.37706,-0.0717 0.22189,0.22188 -3.47262,10.31626 -3.7757,10.31626 -0.13124,0 -0.18251,-0.31355 -0.11389,-0.69677 z m 5.25342,-4.30102 c 0,-0.10107 0.30306,-0.95617 0.67346,-1.90027 0.67454,-1.71933 1.28625,-2.32865 1.02372,-1.01976 -0.22107,1.10221 -1.14636,3.10378 -1.4348,3.10378 -0.1443,0 -0.26238,-0.0828 -0.26238,-0.18375 z m 11.60158,30.90482 c 1.07575,-3.00394 6.59551,-18.11126 7.62928,-20.88099 0.71064,-1.90401 1.29208,-3.58588 1.29208,-3.73748 0,-0.26844 -2.819,-3.11468 -2.95258,-2.9811 -0.037,0.0368 -1.04456,2.74166 -2.23927,6.01055 -1.19466,3.26891 -2.33401,6.34252 -2.53183,6.83025 -0.19786,0.48773 -1.35958,3.66982 -2.58164,7.07133 -2.07749,5.78258 -2.19173,6.20251 -1.75767,6.46092 0.25532,0.15201 0.93615,0.64107 1.51293,1.08681 0.57679,0.44573 1.12306,0.81629 1.21395,0.82346 0.0909,0.007 0.27752,-0.30052 0.41475,-0.68375 z m -33.138,-3.29937 c 0,-0.10761 -1.18624,-0.78556 -2.63607,-1.50662 -1.44984,-0.72105 -3.02362,-1.65127 -3.49729,-2.06717 -0.54157,-0.4755 -0.98148,-0.68183 -1.18523,-0.5559 -0.49951,0.3087 1.21513,1.58928 4.09022,3.05478 2.39058,1.21852 3.22837,1.49748 3.22837,1.07491 z m 3.01013,-10.05047 c 0.15099,-0.59967 0.34153,-1.26488 0.42338,-1.47824 0.11469,-0.29888 -0.1487,-0.45172 -1.14806,-0.66604 -2.48751,-0.53347 -2.70375,-0.45867 -3.15427,1.09105 -0.54306,1.86807 -0.52824,1.92051 0.55211,1.9546 0.52256,0.0166 1.29218,0.10921 1.71024,0.20605 1.09843,0.25443 1.31021,0.10935 1.6166,-1.10742 z m -6.47689,-0.9878 c 0.23446,-0.74386 0.42632,-1.48496 0.42632,-1.64692 0,-0.20473 -0.79984,-0.29443 -2.62521,-0.29443 h -2.62522 l -0.5423,1.41711 c -0.29826,0.77939 -0.47837,1.52049 -0.40026,1.64689 0.0781,0.12643 1.31165,0.2298 2.74117,0.2298 h 2.59917 z m 10.68233,-0.91903 c 0.12657,-0.20473 2.6792,-7.56006 5.38729,-15.52304 0.3664,-1.07741 0.61378,-2.01136 0.5497,-2.07542 -0.0641,-0.0641 -2.22297,-0.35503 -4.7976,-0.6466 -2.57459,-0.29154 -5.99229,-0.69236 -7.59486,-0.8907 -1.60255,-0.19835 -3.09885,-0.36555 -3.32512,-0.37159 -0.31791,-0.009 -1.023,1.85219 -3.10322,8.18915 -1.48054,4.51006 -2.75712,8.52912 -2.8369,8.93128 l -0.14501,0.73117 3.75501,0.0423 c 2.06523,0.0234 3.58394,-0.0194 3.37491,-0.0949 -1.32649,-0.47937 -2.69292,-2.62627 -3.04384,-4.78241 -1.02579,-6.30271 5.6467,-13.93435 10.01152,-11.45065 1.22665,0.69801 2.29556,2.62801 2.53586,4.57871 0.20337,1.65087 -0.38952,4.61121 -1.29359,6.45906 -1.33235,2.72321 -4.67906,5.32524 -6.94311,5.39815 -0.49548,0.016 0.28711,0.23774 1.77361,0.50262 1.46319,0.26073 3.23046,0.6339 3.92723,0.82926 1.64932,0.46245 1.593,0.45691 1.76812,0.17357 z m -5.28032,-2.83182 c 1.23503,-0.57552 3.36932,-2.74972 4.09438,-4.17091 1.85676,-3.63956 1.66791,-8.18853 -0.41827,-10.07518 -0.8011,-0.72451 -2.47923,-0.80571 -3.90647,-0.18906 -1.41147,0.60984 -3.32717,2.44457 -4.30532,4.12333 -1.9604,3.36456 -1.87262,7.88475 0.19325,9.95062 1.25084,1.25083 2.25425,1.33431 4.34243,0.3612 z m -3.57408,-1.25784 c -2.38932,-2.09785 -2.00179,-6.99146 0.80048,-10.10824 1.78278,-1.98289 3.7457,-2.80747 5.21839,-2.19215 2.28642,0.95533 2.85261,5.06847 1.18581,8.61443 -1.08044,2.29855 -3.79043,4.4526 -5.62038,4.4674 -0.41416,0.004 -1.04468,-0.30765 -1.5843,-0.78144 z m 4.48507,-1.21901 c 0.455,-0.40653 0.77034,-0.79003 0.70076,-0.85222 -0.15568,-0.13911 -5.62779,-1.95577 -5.89114,-1.95577 -0.26471,0 -0.23018,1.31706 0.0459,1.75334 0.1859,0.29369 3.45623,1.69721 4.13115,1.77295 0.10227,0.012 0.5583,-0.31176 1.01329,-0.7183 z m 1.809,-2.18229 c 0.17081,-0.44513 0.18497,-0.43801 -3.95847,-1.99221 -2.24079,-0.84051 -2.98651,-1.02895 -3.01511,-0.76189 -0.021,0.19514 -0.0494,0.48155 -0.0633,0.63648 -0.0244,0.27238 5.62888,2.4429 6.47181,2.48473 0.22895,0.0107 0.48325,-0.15384 0.56509,-0.36711 z m 42.45935,2.80944 c 0.77691,-0.93612 -2.20079,-4.92553 -6.3934,-8.56562 -6.18125,-5.36665 -15.29082,-9.90788 -24.50553,-12.21629 -7.87462,-1.9727 -16.57451,-1.88594 -21.15474,0.21098 -1.76804,0.80943 -1.94982,1.2425 -0.94387,2.24846 l 0.77629,0.7763 0.36852,-0.88197 c 0.43692,-1.04569 1.34996,-1.5378 3.85431,-2.07737 2.70347,-0.58246 5.26659,-0.70942 8.63035,-0.42746 12.96252,1.08655 26.92681,7.23545 34.27756,15.09341 1.61576,1.72726 3.59205,4.37802 4.10665,5.50818 0.3594,0.78932 0.5504,0.85368 0.98386,0.33138 z m 0.80743,-2.85659 c -0.32889,-0.5877 -0.62838,0.0616 -0.41176,0.89271 l 0.17781,0.68237 0.22618,-0.59241 c 0.12777,-0.33452 0.13111,-0.7623 0.008,-0.98267 z m -2.75359,-3.60066 c 0.0765,-0.29248 -0.0588,-0.66692 -0.32932,-0.91177 -0.42838,-0.38767 -0.47874,-0.37874 -0.75282,0.13338 -0.23867,0.44597 -0.21237,0.63874 0.14039,1.02853 0.4906,0.54211 0.75277,0.47247 0.94175,-0.25014 z m 2.12023,-1.72275 c 0.32772,-0.80449 0.59639,-1.58276 0.59703,-1.72951 10e-4,-0.45711 -1.5772,-2.4381 -1.76985,-2.22012 -0.1004,0.11362 -0.446,0.96994 -0.76794,1.90293 l -0.58536,1.69634 0.86539,0.98353 c 0.47598,0.54093 0.91029,0.94887 0.96515,0.90652 0.0549,-0.0423 0.36786,-0.73521 0.69558,-1.53969 z m 3.33874,-0.13979 c 0.64469,-0.7768 -1.81417,-4.53931 -4.93299,-7.54837 -7.49721,-7.23337 -19.35984,-12.84041 -31.12566,-14.71199 -2.58703,-0.41153 -9.38441,-0.41352 -11.52832,-0.004 -3.55464,0.68001 -6.58761,1.9751 -6.58761,2.81292 0,0.24458 0.30368,0.77238 0.67482,1.17287 l 0.67484,0.72815 0.44379,-1.04494 c 0.38221,-0.89998 0.63465,-1.11636 1.8195,-1.55967 8.86899,-3.31831 26.04866,0.30526 37.89966,7.99389 4.29805,2.78846 8.304,6.65423 10.68155,10.30782 0.76644,1.17779 1.46508,2.14936 1.55253,2.15905 0.0874,0.009 0.28001,-0.12817 0.42789,-0.30636 z m -8.56804,-1.58055 c 0,-0.15811 -0.29105,-0.56089 -0.64675,-0.89508 -0.54539,-0.51233 -0.68381,-0.54905 -0.88292,-0.23418 -0.37391,0.59125 -0.28667,1.05535 0.31968,1.70079 0.52696,0.56092 0.58461,0.57118 0.88679,0.15793 0.17777,-0.2431 0.3232,-0.57135 0.3232,-0.72946 z m 2.62283,-1.54865 0.72254,-1.92747 -1.47237,-1.48788 c -0.80979,-0.81836 -1.54191,-1.40346 -1.6269,-1.30026 -0.0849,0.1032 -0.47246,1.01987 -0.86104,2.03706 l -0.70648,1.84941 1.48416,1.36964 c 0.8163,0.75329 1.54118,1.37352 1.61086,1.3783 0.0697,0.005 0.45183,-0.85869 0.84923,-1.9188 z m 6.81619,1.10952 c 0.13923,-0.41383 -0.0693,-1.20351 -0.31771,-1.20351 -0.24847,0 -0.45693,0.78968 -0.3177,1.20351 0.0586,0.17419 0.20157,0.3167 0.3177,0.3167 0.11616,0 0.2591,-0.14251 0.31771,-0.3167 z m -11.37932,-4.94699 c 0.3704,-0.94409 0.67345,-1.88849 0.67345,-2.09865 0,-0.53548 -4.89438,-3.74242 -8.27729,-5.42354 -4.7812,-2.37599 -10.21023,-4.28386 -15.1594,-5.32737 -0.97547,-0.20565 -1.90887,-0.37591 -2.0742,-0.37834 -0.25406,-0.004 -1.69871,4.03492 -1.51062,4.22303 0.0354,0.0354 0.45108,0.0964 0.92371,0.13548 0.80606,0.0666 0.88562,4.4e-4 1.28325,-1.05789 0.23316,-0.62095 0.55305,-1.17202 0.71086,-1.22464 0.37506,-0.12497 0.3583,0.10054 -0.10668,1.43579 -0.21243,0.61004 -0.35329,1.13646 -0.31302,1.1698 0.0403,0.0334 1.38442,0.42937 2.98699,0.88004 5.75102,1.61729 12.69884,4.75266 17.35582,7.83223 1.25418,0.82938 2.40484,1.51754 2.557,1.52926 0.15218,0.012 0.57975,-0.75112 0.95015,-1.6952 z m 8.11119,-0.12043 c 0.0984,-0.37599 -0.0158,-0.73507 -0.33535,-1.05464 -0.47707,-0.47714 -0.48706,-0.47419 -0.65459,0.19332 -0.10228,0.40726 -0.0454,0.82827 0.14254,1.05463 0.43584,0.52515 0.67366,0.47089 0.8474,-0.19331 z m -37.69906,-1.77359 c 0.38027,-1.14966 0.74066,-2.22448 0.80092,-2.38849 0.07,-0.19038 -0.33286,-0.35658 -1.114,-0.45971 -0.67291,-0.0888 -1.52551,-0.21769 -1.89462,-0.28639 -0.63891,-0.11882 -0.70277,-0.0298 -1.3302,1.8541 -0.36247,1.08843 -0.65905,2.11124 -0.65905,2.27285 0,0.22799 1.76553,0.79332 3.33634,1.06831 0.0931,0.0163 0.48034,-0.91101 0.86061,-2.06067 z m 39.74931,1.35606 c 0.20883,-0.40384 0.50069,-1.27417 0.64857,-1.93408 0.26053,-1.16251 0.23651,-1.25342 -0.77279,-2.92388 -4.87598,-8.07004 -15.36651,-15.07575 -26.5929,-17.75911 -2.06646,-0.49394 -3.08814,-0.57513 -7.22104,-0.57394 -4.35739,4.4e-4 -5.05534,0.0638 -7.358,0.65908 -2.81096,0.72672 -5.72415,1.81348 -6.71188,2.50387 -0.3841,0.26845 -0.80662,0.96521 -1.05353,1.73732 -0.40022,1.25148 -0.39776,1.28909 0.0841,1.28909 0.62676,0 1.44844,-1.73574 0.96356,-2.0354 -0.45782,-0.28297 -0.0816,-0.69568 1.23513,-1.35469 6.02638,-3.01626 15.82601,-3.16963 24.53478,-0.38395 3.27584,1.04783 10.21749,4.60056 10.22067,5.23093 0.003,0.45778 -0.27272,0.39469 -1.28839,-0.29547 -1.52505,-1.0363 -6.32183,-3.34916 -8.6217,-4.15713 -2.73492,-0.96082 -6.69168,-1.80797 -8.8071,-1.88565 l -1.61637,-0.0593 -0.71406,2.27245 c -0.39274,1.24987 -0.69154,2.28892 -0.66398,2.30901 0.1479,0.10788 3.8541,0.86599 4.23358,0.86599 0.30634,0 0.49733,-0.26581 0.60557,-0.84277 0.0869,-0.46354 0.33547,-1.06212 0.55223,-1.33019 0.36842,-0.45561 0.3844,-0.42127 0.24494,0.52606 -0.0821,0.55741 -0.17536,1.22541 -0.20733,1.48443 -0.0477,0.38688 0.43941,0.63942 2.72894,1.41472 5.64612,1.91189 11.16457,4.5459 15.47266,7.38527 l 2.57345,1.6961 0.84195,-2.03921 0.84193,-2.03921 -0.93372,-0.78393 c -1.00378,-0.84276 -1.15657,-1.16398 -0.55362,-1.16398 0.39755,0 5.44742,4.92718 5.44742,5.31507 0,0.12257 0.16049,0.38336 0.35666,0.57952 0.52258,0.52258 2.17703,3.15805 2.17703,3.46791 0,0.53896 -0.48109,0.24017 -1.02172,-0.63457 -0.30596,-0.49507 -0.62454,-0.83189 -0.70793,-0.74848 -0.0834,0.0834 -0.40024,0.7397 -0.70406,1.4584 l -0.55241,1.30677 0.92299,1.0803 c 0.50762,0.59417 0.94854,1.08405 0.97981,1.08863 0.0312,0.004 0.22768,-0.32211 0.43653,-0.72593 z m -9.86804,-13.48796 c -1.11013,-0.83129 -1.3781,-1.23335 -0.82202,-1.23335 0.49328,0 2.19492,1.31902 2.20631,1.71024 0.0135,0.46251 -0.25186,0.37109 -1.38429,-0.47689 z m -36.58178,12.73287 c 0.17134,-0.17217 1.23671,-3.29691 1.23671,-3.62726 0,-0.24209 -2.94775,-0.23909 -4.53771,0.004 l -1.11723,0.17125 -0.59301,1.7596 c -0.32617,0.96778 -0.59304,1.85033 -0.59304,1.9612 0,0.22971 5.36419,-0.0282 5.60428,-0.26942 z m 41.09687,-2.18453 c 0.0975,-0.35761 -0.0804,-0.67999 -0.60415,-1.09543 l -0.74221,-0.5887 -0.26507,0.69718 c -0.23465,0.61717 -0.18385,0.76251 0.44259,1.26654 0.74377,0.59843 0.94255,0.55087 1.16884,-0.27959 z m -18.26938,-0.0182 c 0.36879,-0.80936 0.3585,-0.81645 -2.94828,-2.03372 -2.39307,-0.88092 -2.53007,-0.90328 -2.85041,-0.46516 -0.42376,0.57952 -0.4332,1.12008 -0.0199,1.1347 0.1742,0.007 1.39986,0.45444 2.72372,0.99619 1.32386,0.54175 2.49497,0.99279 2.60249,1.00228 0.10747,0.009 0.32904,-0.27593 0.49232,-0.63429 z m 21.58101,-2.30115 c 0.13414,-0.42291 -0.11616,-0.89331 -1.11232,-2.0903 -0.70699,-0.84953 -1.36894,-1.54459 -1.47101,-1.54459 -0.20723,0 -1.69851,3.7662 -1.54212,3.89468 0.0545,0.0449 0.77604,0.68722 1.60319,1.42742 l 1.50392,1.34584 0.42263,-1.24366 c 0.23243,-0.68403 0.50052,-1.48925 0.59571,-1.78939 z m -53.45137,-0.23249 c 0.40917,-0.40917 0.52983,-0.8687 0.22809,-0.8687 -0.25554,0 -1.09679,0.80747 -1.09679,1.05275 0,0.34111 0.43592,0.24875 0.8687,-0.18405 z m 3.98021,-1.08945 c 0.0888,-0.0876 0.24046,-0.42029 0.33692,-0.73928 0.16087,-0.53206 0.11616,-0.5658 -0.5416,-0.40835 -1.10557,0.26464 -1.52826,0.54555 -1.67702,1.11438 -0.12471,0.47695 -0.0562,0.50788 0.79179,0.35734 0.51059,-0.0906 1.00106,-0.23648 1.08991,-0.32409 z m 7.91917,-0.94013 c 0.31791,-0.82849 0.16202,-1.11944 -0.59982,-1.11944 -0.58107,0 -0.84358,0.17401 -1.14666,0.7601 l -0.39307,0.76011 h 0.99287 c 0.67166,0 1.04264,-0.12964 1.14668,-0.40077 z m -7.20922,-2.52363 c 0.32185,-0.91166 0.53414,-1.70858 0.47175,-1.77096 -0.29685,-0.29687 -1.06043,0.68062 -1.49449,1.91313 -0.58213,1.65306 -0.5801,1.51539 -0.0223,1.51539 0.33776,0 0.61526,-0.44013 1.04506,-1.65756 z m 14.03083,-0.55942 c 0.35023,-1.07999 0.56097,-2.03916 0.46831,-2.1315 -0.0927,-0.0923 -0.91743,-0.24592 -1.83283,-0.3413 l -1.66436,-0.17345 -0.67789,1.97695 c -0.37285,1.08733 -0.59303,2.06035 -0.48929,2.16226 0.1655,0.16258 0.70482,0.23888 3.0141,0.42639 0.46697,0.038 0.63653,-0.23744 1.18196,-1.91935 z m -8.30515,1.45908 1.52979,-0.003 0.67681,-2.06448 0.6768,-2.06448 -2.33328,0.16203 c -3.34128,0.23205 -3.36584,0.24392 -3.93828,1.90238 -0.27168,0.78713 -0.58244,1.64882 -0.69058,1.91487 -0.18354,0.45157 -0.10534,0.47278 1.17616,0.31893 0.75503,-0.0907 2.0612,-0.16581 2.90258,-0.16703 z m 25.43577,-2.34587 c 0.12029,-0.31356 0.14513,-0.64234 0.0551,-0.73068 -0.19063,-0.18716 -5.32135,-2.24642 -5.59706,-2.24642 -0.18523,0 -0.85881,1.28995 -0.7202,1.37923 0.27828,0.17927 5.45943,2.11864 5.71847,2.14051 0.17868,0.0151 0.4233,-0.2291 0.54362,-0.54264 z m -32.40991,-2.98289 c 0.19819,-0.37033 0.18839,-0.50094 -0.0376,-0.50094 -0.43222,0 -1.23238,0.77157 -1.23238,1.18836 0,0.48108 0.9075,-0.0107 1.26998,-0.68742 z m 3.98069,-1.16886 c 0.53549,-0.73231 0.37746,-0.91839 -0.62664,-0.73787 -0.93463,0.16803 -1.58356,0.70113 -1.58356,1.30086 0,0.44969 1.8061,-0.0107 2.2102,-0.56299 z m 7.15556,-0.58227 c 0.45885,-0.85736 0.31344,-1.06495 -0.68786,-0.98208 -0.82489,0.0684 -0.9607,0.17047 -1.0303,0.7754 -0.0718,0.6245 -4.4e-4,0.69677 0.68786,0.69677 0.5,0 0.85954,-0.17102 1.0303,-0.49009 z m -0.90132,-1.75102 1.24342,-0.16614 0.59172,-1.75416 c 0.32545,-0.96477 0.55482,-1.79104 0.50972,-1.83613 -0.13724,-0.13725 -3.00401,0.42451 -4.30571,0.84373 -1.07258,0.34542 -1.28437,0.53466 -1.71024,1.52818 -0.26733,0.62366 -0.48606,1.2764 -0.48606,1.45049 0,0.32479 1.39894,0.30259 4.15715,-0.066 z m 7.86687,-1.57252 c 0.35445,-1.12202 0.64446,-2.15316 0.64446,-2.29143 0,-0.1498 -0.7332,-0.2213 -1.8143,-0.17695 l -1.81431,0.0745 -0.59271,1.75958 c -0.32599,0.96779 -0.5927,1.90154 -0.5927,2.07502 0,0.29685 0.77016,0.45494 2.71269,0.55678 0.80189,0.0421 0.8208,0.0162 1.45687,-1.99746 z"
         style="fill:#4a4949;fill-opacity:1;stroke-width:0.25336969" />
      <g
         transform="matrix(2.888614,0,0,2.888614,128.97676,-262.72819)"
         id="text861"
         style="font-style:normal;font-weight:normal;font-size:40px;line-height:1.25;font-family:sans-serif;letter-spacing:0px;word-spacing:0px;fill:#4a4949;fill-opacity:1;stroke:none"
         aria-label="i">
        <path
           inkscape:connector-curvature="0"
           id="path863"
           style="font-style:normal;font-variant:normal;font-weight:bold;font-stretch:normal;font-size:40px;font-family:Diavlo;-inkscape-font-specification:'Diavlo, Bold';font-variant-ligatures:normal;font-variant-caps:normal;font-variant-numeric:normal;font-feature-settings:normal;text-align:start;writing-mode:lr-tb;text-anchor:start;fill:#4a4949;fill-opacity:1"
           d="m 166.59494,163.67665 v -18.55469 q 0.29297,0 0.68359,0.0195 0.39063,0.0195 1.25,0.17579 0.87891,0.13671 1.54297,0.39062 0.66407,0.23438 1.19141,0.76172 0.52734,0.52734 0.52734,1.25 v 18.55469 q -0.21484,0 -0.5664,-0.0195 -0.35157,-0.0195 -1.25,-0.15625 -0.87891,-0.13672 -1.58203,-0.3711 -0.6836,-0.2539 -1.25,-0.78125 -0.54688,-0.54687 -0.54688,-1.26953 z m 0.11719,-22.63672 v -3.32031 h 3.51562 q 0.48828,0 0.97657,0.37109 0.50781,0.3711 0.50781,0.78125 v 3.32032 h -3.51563 q -0.60547,0 -1.05468,-0.35157 -0.42969,-0.35156 -0.42969,-0.80078 z" />
      </g>
      <path
         d="m 534.77483,209.95104 v -74.50211 q 0.59731,0 1.57475,0.0542 1.03173,0.0541 3.58392,0.43441 2.60649,0.3801 4.56135,1.08603 2.00917,0.65163 3.58392,2.17207 1.62906,1.46615 1.62906,3.47532 v 25.95629 q 7.98237,-1.62907 14.00987,-7.98238 6.08182,-6.35332 12.65232,-18.19112 3.90973,-7.22214 12.81524,-7.22214 1.24895,0 2.9323,0.27152 1.68337,0.21721 2.7694,0.48872 l 1.08605,0.27152 q -1.90058,3.04089 -4.99579,8.47107 -3.04091,5.43018 -5.32158,9.177 -2.28069,3.74682 -5.37589,8.03667 -3.09519,4.23554 -6.73342,7.22215 -3.58391,2.98662 -7.71086,4.56136 3.52962,0.97742 7.00494,3.47532 3.47532,2.44357 6.19042,5.43017 2.71507,2.9866 5.43017,7.05924 2.7694,4.07262 4.61567,7.49364 1.84625,3.36673 3.85541,7.43936 4.07265,7.92808 6.35332,11.24047 -4.45274,1.08604 -6.78772,1.08604 -2.33497,0 -4.66997,-0.54303 -2.28066,-0.48869 -4.99576,-2.17207 -2.66079,-1.73764 -4.12694,-4.50703 -0.81453,-1.46616 -2.60648,-4.72427 -1.73767,-3.3124 -2.7151,-4.99576 -0.92314,-1.73767 -2.76939,-4.66995 -1.79197,-2.9323 -3.20382,-4.61567 -1.35753,-1.68335 -3.47532,-3.90972 -2.06345,-2.22638 -4.07262,-3.58393 -2.00917,-1.35755 -4.66997,-2.5522 -2.60648,-1.19462 -5.48448,-1.73765 v 38.22847 q -0.59731,0 -1.62906,-0.0542 -0.97743,-0.0542 -3.58392,-0.43443 -2.55217,-0.38012 -4.56135,-1.03172 -1.95487,-0.70595 -3.58392,-2.17209 -1.57475,-1.52045 -1.57475,-3.52963 z"
         style="font-style:normal;font-variant:normal;font-weight:bold;font-stretch:normal;font-size:52.93466568px;line-height:0;font-family:Diavlo;-inkscape-font-specification:'Diavlo, Bold';font-variant-ligatures:normal;font-variant-caps:normal;font-variant-numeric:normal;font-feature-settings:normal;text-align:center;letter-spacing:0px;word-spacing:0px;writing-mode:lr-tb;text-anchor:middle;fill:#4a4949;fill-opacity:1;stroke:none;stroke-width:2.78024673"
         id="path835"
         inkscape:connector-curvature="0" />
      <path
         d="m 641.24287,193.73307 v -57.61992 q 1.38235,0 2.45056,0.0628 1.0682,0.0627 3.26743,0.31419 2.26208,0.25134 3.89579,1.00536 1.63372,0.69119 3.33027,1.82222 1.7594,1.13103 2.70192,3.14176 0.94254,2.01073 0.94254,4.58697 v 4.587 h 26.26512 q 0,0.50265 -0.0628,1.38237 -0.063,0.81684 -0.62834,3.01609 -0.50271,2.19922 -1.44522,3.89577 -0.8797,1.63371 -2.8276,3.01611 -1.9479,1.31951 -4.58697,1.31951 H 657.8314 v 25.88814 q 0,6.91188 2.63907,10.305 2.63907,3.33025 9.6138,3.33025 6.4092,0 10.74483,-3.20459 4.39847,-3.2046 4.39847,-10.30499 5.40383,5.96936 5.40383,11.43603 0,6.28352 -5.90653,10.49349 -5.90651,4.20996 -16.96552,4.20996 -12.62988,0 -19.60458,-5.96936 -6.91189,-5.96933 -6.91189,-16.71416 z"
         style="font-style:normal;font-variant:normal;font-weight:bold;font-stretch:normal;font-size:52.93466568px;line-height:0;font-family:Diavlo;-inkscape-font-specification:'Diavlo, Bold';font-variant-ligatures:normal;font-variant-caps:normal;font-variant-numeric:normal;font-feature-settings:normal;text-align:center;letter-spacing:0px;word-spacing:0px;writing-mode:lr-tb;text-anchor:middle;fill:#4a4949;fill-opacity:1;stroke:none;stroke-width:3.21715784"
         id="path839"
         inkscape:connector-curvature="0" />
      <g
         transform="matrix(2.1125555,0,0,2.1125555,476.89627,-972.75013)"
         id="g857"
         style="fill:#4a4949;fill-opacity:1">
        <path
           inkscape:connector-curvature="0"
           id="path841"
           style="font-style:normal;font-variant:normal;font-weight:bold;font-stretch:normal;font-size:52.93466568px;line-height:0;font-family:Diavlo;-inkscape-font-specification:'Diavlo, Bold';font-variant-ligatures:normal;font-variant-caps:normal;font-variant-numeric:normal;font-feature-settings:normal;text-align:center;letter-spacing:0px;word-spacing:0px;writing-mode:lr-tb;text-anchor:middle;fill:#4a4949;fill-opacity:1;stroke:none;stroke-width:1.32336342"
           d="m 145.54604,554.68799 v -1.47328 q 0,-2.76563 1.36989,-4.93678 1.36989,-2.19699 3.82536,-3.04994 -2.01607,-0.82711 -3.36011,-3.0241 -1.3182,-2.22284 -1.3182,-4.70416 v -1.16311 q 0,-3.38596 1.78344,-5.73804 1.80929,-2.37792 4.88509,-3.51519 3.07579,-1.13727 7.15962,-1.13727 4.08382,0 7.13377,1.13727 3.07579,1.13727 4.85924,3.51519 1.80929,2.35208 1.80929,5.73804 v 1.16311 q 0,2.48132 -1.3182,4.70416 -1.3182,2.19699 -3.33426,3.0241 2.45546,0.85295 3.82535,3.04994 1.3699,2.17115 1.3699,4.93678 v 1.3182 q 0,5.09186 -3.87706,7.83164 -3.87705,2.71394 -10.46803,2.71394 -6.61684,0 -10.49389,-2.66224 -3.8512,-2.66225 -3.8512,-7.72826 z m 7.08208,-0.62033 q 0,3.10164 1.7059,4.44569 1.7059,1.3182 5.55711,1.3182 3.82535,0 5.53126,-1.3699 1.7059,-1.39573 1.7059,-4.57492 0,-3.17918 -1.7059,-4.60076 -1.70591,-1.42159 -5.53126,-1.42159 -3.82536,0 -5.55711,1.47328 -1.7059,1.44743 -1.7059,4.73 z m 2.1453,-21.5564 q -1.60251,1.3182 -1.60251,4.39399 0,3.0758 1.42158,4.39399 1.42159,1.3182 4.88509,1.3182 h 0.8271 q 3.4635,0 4.88508,-1.3182 1.42159,-1.31819 1.42159,-4.39399 0,-3.07579 -1.62836,-4.39399 -1.60252,-1.3182 -5.09186,-1.3182 -3.48935,0 -5.11771,1.3182 z" />
        <path
           inkscape:connector-curvature="0"
           id="path843"
           style="font-style:normal;font-variant:normal;font-weight:bold;font-stretch:normal;font-size:52.93466568px;line-height:0;font-family:Diavlo;-inkscape-font-specification:'Diavlo, Bold';font-variant-ligatures:normal;font-variant-caps:normal;font-variant-numeric:normal;font-feature-settings:normal;text-align:center;letter-spacing:0px;word-spacing:0px;writing-mode:lr-tb;text-anchor:middle;fill:#4a4949;fill-opacity:1;stroke:none;stroke-width:1.32336342"
           d="m 180.59458,554.68799 v -18.35137 q 0,-5.06602 3.8512,-7.72826 3.87705,-2.66224 10.49389,-2.66224 6.61683,0 10.46803,2.66224 3.87705,2.66224 3.87705,7.72826 v 18.35137 q 0,5.06601 -3.87705,7.72826 -3.8512,2.66224 -10.46803,2.66224 -6.61684,0 -10.49389,-2.66224 -3.8512,-2.66225 -3.8512,-7.72826 z m 7.08208,-0.80126 q 0,3.12749 1.7059,4.54908 1.73175,1.39574 5.55711,1.39574 3.82535,0 5.53125,-1.39574 1.70591,-1.42159 1.70591,-4.54908 v -16.7747 q 0,-3.12749 -1.70591,-4.52323 -1.7059,-1.39574 -5.53125,-1.39574 -3.82536,0 -5.55711,1.39574 -1.7059,1.39574 -1.7059,4.52323 z" />
      </g>
    </g>
  </g>
</svg>
